# Made in Blockbench 5.1.6
mtllib Bomb.mtl

o sphere
v 0 0 0
v 0 1 0
v 0.06698729810778065 0.9330127018922194 0.24999999999999994
v 0.11602540378443862 0.75 0.4330127018922193
v 0.13397459621556132 0.5 0.49999999999999994
v 0.11602540378443864 0.2500000000000001 0.43301270189221935
v 0.06698729810778065 0.06698729810778065 0.24999999999999994
v 0.18301270189221924 0.9330127018922194 0.18301270189221927
v 0.31698729810778065 0.75 0.31698729810778065
v 0.3660254037844386 0.5 0.36602540378443865
v 0.31698729810778065 0.2500000000000001 0.3169872981077807
v 0.18301270189221924 0.06698729810778065 0.18301270189221927
v 0.24999999999999994 0.9330127018922194 0.06698729810778065
v 0.4330127018922193 0.75 0.11602540378443862
v 0.49999999999999994 0.5 0.13397459621556132
v 0.43301270189221935 0.2500000000000001 0.11602540378443864
v 0.24999999999999994 0.06698729810778065 0.06698729810778065
v 0.24999999999999994 0.9330127018922194 -0.06698729810778067
v 0.4330127018922193 0.75 -0.11602540378443868
v 0.49999999999999994 0.5 -0.13397459621556138
v 0.43301270189221935 0.2500000000000001 -0.1160254037844387
v 0.24999999999999994 0.06698729810778065 -0.06698729810778067
v 0.18301270189221927 0.9330127018922194 -0.18301270189221924
v 0.31698729810778065 0.75 -0.31698729810778065
v 0.36602540378443865 0.5 -0.3660254037844386
v 0.3169872981077807 0.2500000000000001 -0.31698729810778065
v 0.18301270189221927 0.06698729810778065 -0.18301270189221924
v 0.06698729810778072 0.9330127018922194 -0.2499999999999999
v 0.11602540378443875 0.75 -0.43301270189221924
v 0.1339745962155615 0.5 -0.4999999999999999
v 0.11602540378443876 0.2500000000000001 -0.4330127018922193
v 0.06698729810778072 0.06698729810778065 -0.2499999999999999
v -0.06698729810778055 0.9330127018922194 -0.24999999999999997
v -0.11602540378443846 0.75 -0.43301270189221935
v -0.13397459621556113 0.5 -0.5
v -0.11602540378443847 0.2500000000000001 -0.4330127018922194
v -0.06698729810778055 0.06698729810778065 -0.24999999999999997
v -0.18301270189221924 0.9330127018922194 -0.1830127018922193
v -0.31698729810778065 0.75 -0.3169872981077807
v -0.3660254037844386 0.5 -0.3660254037844387
v -0.31698729810778065 0.2500000000000001 -0.31698729810778076
v -0.18301270189221924 0.06698729810778065 -0.1830127018922193
v -0.24999999999999994 0.9330127018922194 -0.06698729810778062
v -0.4330127018922193 0.75 -0.11602540378443858
v -0.49999999999999994 0.5 -0.13397459621556126
v -0.43301270189221935 0.2500000000000001 -0.1160254037844386
v -0.24999999999999994 0.06698729810778065 -0.06698729810778062
v -0.24999999999999997 0.9330127018922194 0.06698729810778054
v -0.43301270189221935 0.75 0.11602540378443843
v -0.5 0.5 0.1339745962155611
v -0.4330127018922194 0.2500000000000001 0.11602540378443844
v -0.24999999999999997 0.06698729810778065 0.06698729810778054
v -0.1830127018922193 0.9330127018922194 0.18301270189221922
v -0.3169872981077807 0.75 0.3169872981077806
v -0.3660254037844387 0.5 0.36602540378443854
v -0.31698729810778076 0.2500000000000001 0.3169872981077806
v -0.1830127018922193 0.06698729810778065 0.18301270189221922
v -0.06698729810778063 0.9330127018922194 0.24999999999999994
v -0.1160254037844386 0.75 0.4330127018922193
v -0.1339745962155613 0.5 0.49999999999999994
v -0.11602540378443861 0.2500000000000001 0.43301270189221935
v -0.06698729810778063 0.06698729810778065 0.24999999999999994
vt 0.14939201725610526 0.8692134406577715
vt 0.17868033437855552 0.8854623104399221
vt 0.13264514225610527 0.9339196906577715
vt 0.14939201725610526 0.8692134406577715
vt 0.16165139225610528 0.8045071906577714
vt 0.2156433958119635 0.8257277869800758
vt 0.18056451747759247 0.8814652372200672
vt 0.3593703294394377 0.7923261423705137
vt 0.34599375 0.7288587998405722
vt 0.4123399571252735 0.7196118567597312
vt 0.41682745712527347 0.7843181067597312
vt 0.34599375 0.7288587998405722
vt 0.34150625 0.6641525498405721
vt 0.39896337768583584 0.6561445142297898
vt 0.4123399571252735 0.7196118567597313
vt 0.34150625 0.6641525498405721
vt 0.3447162223418807 0.5983734715404205
vt 0.37788932590451746 0.59375
vt 0.39896337768583584 0.6561445142297898
vt 0.7100976921224502 0.7395376895600778
vt 0.6808093749999999 0.7557865593422285
vt 0.6640625 0.6910803093422284
vt 0.17868033437855552 0.8854623104399221
vt 0.19640841053210428 0.9138796749369418
vt 0.13264514225610524 0.9339196906577715
vt 0.1805645174775925 0.8814652372200672
vt 0.2156433958119635 0.8257277869800758
vt 0.2581311827492893 0.8652276365673641
vt 0.20509501200432478 0.904270634110638
vt 0.41129754287472653 0.5968181067597311
vt 0.4157850428747265 0.5321118567597312
vt 0.48213125 0.5413587998405722
vt 0.4687546705605623 0.6048261423705136
vt 0.4157850428747265 0.5321118567597312
vt 0.4291616223141642 0.4686445142297897
vt 0.48661875000000004 0.47665254984057215
vt 0.48213125 0.5413587998405722
vt 0.758508095791504 0.7841877050253876
vt 0.7100976921224502 0.7395376895600778
vt 0.727825768275999 0.7111203250630581
vt 0.7892138250053946 0.7349677055364274
vt 0.727825768275999 0.7111203250630581
vt 0.7100976921224502 0.7395376895600778
vt 0.6640625 0.6910803093422284
vt 0.19640841053210428 0.9138796749369418
vt 0.19812441608812897 0.9473294374771183
vt 0.13264514225610524 0.9339196906577715
vt 0.014503124999999999 0.796875
vt 0.0022437499999999992 0.734375
vt 0.06025625 0.734375
vt 0.04799687500000001 0.796875
vt 0.48661875 0.6060650498405722
vt 0.48213125 0.5413587998405722
vt 0.54911875 0.5413587998405722
vt 0.54463125 0.6060650498405722
vt 0.48213125 0.5413587998405722
vt 0.48661875 0.47665254984057215
vt 0.54463125 0.47665254984057215
vt 0.54911875 0.5413587998405722
vt 0.48661875 0.47665254984057215
vt 0.498878125 0.4119462998405722
vt 0.5323718749999999 0.4119462998405722
vt 0.54463125 0.47665254984057215
vt 0.7295417738320237 0.6776705625228817
vt 0.727825768275999 0.7111203250630581
vt 0.6640625 0.6910803093422284
vt 0.19812441608812897 0.9473294374771183
vt 0.1833974320731874 0.9774117783249671
vt 0.13264514225610524 0.9339196906577715
vt 0.2634876302517805 0.4375
vt 0.21045145950681593 0.3984570024567261
vt 0.2529392464441418 0.35895715286943775
vt 0.2880181247785128 0.4146946031094292
vt 0.5624953294394377 0.6048261423705136
vt 0.54911875 0.5413587998405722
vt 0.6154649571252735 0.5321118567597312
vt 0.6199524571252735 0.5968181067597311
vt 0.54911875 0.5413587998405722
vt 0.54463125 0.47665254984057215
vt 0.6020883776858359 0.4686445142297897
vt 0.6154649571252735 0.5321118567597312
vt 0.54463125 0.47665254984057215
vt 0.5478412223418807 0.41087347154042053
vt 0.5810143259045175 0.40625
vt 0.6020883776858359 0.4686445142297897
vt 0.7148147898170821 0.6475882216750328
vt 0.7295417738320237 0.6776705625228817
vt 0.6640625 0.6910803093422284
vt 0.1833974320731874 0.9774117783249671
vt 0.15592566145133013 0.9965724961602299
vt 0.13264514225610527 0.9339196906577715
vt 0.2880181247785128 0.4146946031094292
vt 0.2529392464441418 0.35895715286943775
vt 0.30693125 0.3377365565471335
vt 0.319190625 0.4024428065471335
vt 0.0050475428747265155 0.5968181067597312
vt 0.009535042874726535 0.5321118567597312
vt 0.07588125 0.5413587998405722
vt 0.06250467056056233 0.6048261423705137
vt 0.009535042874726535 0.5321118567597312
vt 0.022911622314164215 0.4686445142297897
vt 0.08036875000000003 0.47665254984057215
vt 0.07588125 0.5413587998405722
vt 0.022911622314164215 0.4686445142297897
vt 0.043985674095482596 0.40625
vt 0.07715877765811933 0.41087347154042053
vt 0.08036875000000003 0.47665254984057215
vt 0.6873430191952249 0.62842750383977
vt 0.7148147898170821 0.6475882216750328
vt 0.6640625 0.6910803093422285
vt 0.14268253875935802 1
vt 0.10936462306088039 0.9965724961602299
vt 0.13264514225610527 0.9339196906577715
vt 0.319190625 0.4024428065471335
vt 0.30693125 0.3377365565471335
vt 0.36494375 0.3377365565471335
vt 0.352684375 0.4024428065471335
vt 0.08036875 0.6060650498405722
vt 0.07588125 0.5413587998405722
vt 0.14286875 0.5413587998405722
vt 0.13838125 0.6060650498405722
vt 0.07588125 0.5413587998405722
vt 0.08036875 0.47665254984057215
vt 0.13838125 0.47665254984057215
vt 0.14286875 0.5413587998405722
vt 0.08036875 0.47665254984057215
vt 0.09262812499999999 0.4119462998405722
vt 0.126121875 0.4119462998405722
vt 0.13838125 0.47665254984057215
vt 0.6540251034967473 0.625
vt 0.6873430191952249 0.62842750383977
vt 0.6640625 0.6910803093422285
vt 0.10936462306088039 0.9965724961602299
vt 0.08189285243902314 0.9774117783249671
vt 0.13264514225610527 0.9339196906577715
vt 0.352684375 0.4024428065471335
vt 0.36494375 0.3377365565471335
vt 0.4189357535558582 0.35895715286943775
vt 0.3838568752214872 0.4146946031094292
vt 0.1562453294394377 0.6048261423705137
vt 0.14286875 0.5413587998405722
vt 0.2092149571252735 0.5321118567597312
vt 0.21370245712527347 0.5968181067597312
vt 0.14286875 0.5413587998405722
vt 0.13838125 0.47665254984057215
vt 0.19583837768583584 0.4686445142297898
vt 0.2092149571252735 0.5321118567597313
vt 0.13838125 0.47665254984057215
vt 0.1415912223418807 0.41087347154042053
vt 0.17476432590451746 0.40625
vt 0.19583837768583584 0.4686445142297898
vt 0.6133102101829179 0.6475882216750328
vt 0.6407819808047751 0.62842750383977
vt 0.6640625 0.6910803093422285
vt 0.08189285243902314 0.9774117783249671
vt 0.06716586842408157 0.9473294374771183
vt 0.1326451422561053 0.9339196906577715
vt 0.3838568752214872 0.4146946031094292
vt 0.4189357535558582 0.35895715286943775
vt 0.46142354049318407 0.3984570024567261
vt 0.4083873697482195 0.4375
vt 0.41129754287472653 0.9874431067597312
vt 0.4157850428747265 0.9227368567597312
vt 0.48213125 0.9319837998405722
vt 0.4687546705605623 0.9954511423705137
vt 0.4157850428747265 0.9227368567597312
vt 0.4291616223141642 0.8592695142297897
vt 0.48661875000000004 0.8672775498405721
vt 0.48213125 0.9319837998405722
vt 0.4291616223141642 0.8592695142297897
vt 0.4502356740954826 0.796875
vt 0.48340877765811935 0.8014984715404205
vt 0.48661875000000004 0.8672775498405721
vt 0.5985832261679763 0.6776705625228817
vt 0.6133102101829179 0.6475882216750328
vt 0.6640625 0.6910803093422284
vt 0.06716586842408158 0.9473294374771183
vt 0.06888187398010626 0.9138796749369418
vt 0.1326451422561053 0.9339196906577715
vt 0.233253125 1
vt 0.22099375 0.9375
vt 0.27900625 0.9375
vt 0.266746875 1
vt 0.48661875 0.9966900498405722
vt 0.48213125 0.9319837998405722
vt 0.54911875 0.9319837998405722
vt 0.54463125 0.9966900498405722
vt 0.48213125 0.9319837998405722
vt 0.48661875 0.8672775498405721
vt 0.54463125 0.8672775498405721
vt 0.54911875 0.9319837998405722
vt 0.48661875 0.8672775498405721
vt 0.498878125 0.8025712998405722
vt 0.5323718749999999 0.8025712998405722
vt 0.54463125 0.8672775498405721
vt 0.600299231724001 0.7111203250630581
vt 0.5985832261679763 0.6776705625228817
vt 0.6640625 0.6910803093422284
vt 0.06888187398010626 0.9138796749369418
vt 0.08660995013365502 0.8854623104399221
vt 0.1326451422561053 0.9339196906577715
vt 0.06888187398010626 0.9138796749369418
vt 0.007493817250710688 0.8900322944635725
vt 0.03819954646460129 0.8408122949746124
vt 0.08660995013365504 0.8854623104399221
vt 0.5624953294394377 0.9954511423705137
vt 0.54911875 0.9319837998405722
vt 0.6154649571252735 0.9227368567597312
vt 0.6199524571252735 0.9874431067597312
vt 0.54911875 0.9319837998405722
vt 0.54463125 0.8672775498405721
vt 0.6020883776858359 0.8592695142297898
vt 0.6154649571252735 0.9227368567597313
vt 0.5389111749946054 0.7349677055364274
vt 0.600299231724001 0.7111203250630581
vt 0.6180273078775498 0.7395376895600778
vt 0.569616904208496 0.7841877050253875
vt 0.6180273078775498 0.7395376895600778
vt 0.600299231724001 0.7111203250630581
vt 0.6640625 0.6910803093422284
vt 0.08660995013365502 0.8854623104399221
vt 0.11589826725610528 0.8692134406577715
vt 0.13264514225610527 0.9339196906577715
vt 0.08660995013365502 0.8854623104399221
vt 0.04449881318827499 0.8348279030708161
vt 0.09522733707903507 0.8066842178090281
vt 0.11589826725610528 0.8692134406577715
vt 0.20817254287472653 0.7843181067597312
vt 0.21266004287472653 0.7196118567597312
vt 0.27900625 0.7288587998405722
vt 0.2656296705605623 0.7923261423705137
vt 0.21266004287472653 0.7196118567597312
vt 0.22603662231416422 0.6561445142297897
vt 0.28349375000000004 0.6641525498405721
vt 0.27900625 0.7288587998405722
vt 0.22603662231416422 0.6561445142297897
vt 0.2471106740954826 0.59375
vt 0.28028377765811935 0.5983734715404205
vt 0.28349375000000004 0.6641525498405721
vt 0.6473156250000001 0.7557865593422285
vt 0.6180273078775498 0.7395376895600778
vt 0.6640625 0.6910803093422284
vt 0.11589826725610528 0.8692134406577715
vt 0.14939201725610526 0.8692134406577715
vt 0.13264514225610527 0.9339196906577715
vt 0.11589826725610528 0.8692134406577715
vt 0.10363889225610527 0.8045071906577714
vt 0.16165139225610528 0.8045071906577714
vt 0.14939201725610526 0.8692134406577715
vt 0.28349375 0.7935650498405722
vt 0.27900625 0.7288587998405722
vt 0.34599375 0.7288587998405722
vt 0.34150625 0.7935650498405722
vt 0.27900625 0.7288587998405722
vt 0.28349375 0.6641525498405721
vt 0.34150625 0.6641525498405721
vt 0.34599375 0.7288587998405722
vt 0.28349375 0.6641525498405721
vt 0.295753125 0.5994462998405722
vt 0.329246875 0.5994462998405722
vt 0.34150625 0.6641525498405721
vt 0.6808093749999999 0.7557865593422285
vt 0.6473156250000001 0.7557865593422285
vt 0.6640625 0.6910803093422284
vn 0.12940952255126043 0.9659258262890683 0.22414386804201333
vn 0.35355339059327373 0.7071067811865477 0.6123724356957945
vn 0.48296291314453405 0.2588190451025207 0.836516303737808
vn 0.48296291314453427 -0.2588190451025205 0.8365163037378079
vn 0.3535533905932741 -0.7071067811865475 0.6123724356957946
vn 0.12940952255126043 -0.9659258262890683 0.22414386804201333
vn 0.22414386804201336 0.9659258262890683 0.12940952255126045
vn 0.6123724356957944 0.7071067811865478 0.3535533905932736
vn 0.8365163037378079 0.2588190451025208 0.48296291314453405
vn 0.8365163037378078 -0.25881904510252074 0.48296291314453427
vn 0.6123724356957945 -0.7071067811865475 0.353553390593274
vn 0.22414386804201336 -0.9659258262890683 0.12940952255126045
vn 0.2588190451025207 0.9659258262890683 0
vn 0.7071067811865475 0.7071067811865476 0
vn 0.9659258262890683 0.25881904510252063 0
vn 0.9659258262890683 -0.2588190451025205 0
vn 0.7071067811865476 -0.7071067811865475 0
vn 0.2588190451025207 -0.9659258262890683 0
vn 0.22414386804201333 0.9659258262890683 -0.12940952255126045
vn 0.6123724356957944 0.7071067811865477 -0.3535533905932738
vn 0.836516303737808 0.25881904510252063 -0.48296291314453416
vn 0.8365163037378078 -0.2588190451025205 -0.4829629131445344
vn 0.6123724356957945 -0.7071067811865474 -0.3535533905932741
vn 0.22414386804201333 -0.9659258262890683 -0.12940952255126045
vn 0.1294095225512604 0.9659258262890683 -0.22414386804201333
vn 0.35355339059327373 0.7071067811865477 -0.6123724356957944
vn 0.48296291314453427 0.2588190451025208 -0.836516303737808
vn 0.4829629131445343 -0.2588190451025208 -0.8365163037378078
vn 0.3535533905932739 -0.7071067811865475 -0.6123724356957947
vn 0.1294095225512604 -0.9659258262890683 -0.22414386804201333
vn 1.608589638639305e-16 0.9659258262890683 -0.2588190451025207
vn 3.466028960407396e-16 0.7071067811865477 -0.7071067811865475
vn 4.0022255066204975e-16 0.2588190451025207 -0.9659258262890683
vn 4.621371947209864e-16 -0.25881904510252063 -0.9659258262890684
vn 4.0022255066204975e-16 -0.7071067811865476 -0.7071067811865476
vn 1.6085896386393055e-16 -0.9659258262890683 -0.25881904510252074
vn -0.12940952255126034 0.9659258262890683 -0.2241438680420134
vn -0.3535533905932735 0.7071067811865477 -0.6123724356957946
vn -0.48296291314453377 0.25881904510252063 -0.8365163037378082
vn -0.482962913144534 -0.25881904510252046 -0.836516303737808
vn -0.3535533905932737 -0.7071067811865474 -0.6123724356957947
vn -0.12940952255126034 -0.9659258262890683 -0.2241438680420134
vn -0.22414386804201336 0.9659258262890683 -0.1294095225512604
vn -0.6123724356957945 0.7071067811865477 -0.3535533905932735
vn -0.836516303737808 0.25881904510252074 -0.4829629131445339
vn -0.8365163037378078 -0.25881904510252074 -0.48296291314453416
vn -0.6123724356957946 -0.7071067811865476 -0.3535533905932739
vn -0.22414386804201336 -0.9659258262890683 -0.1294095225512604
vn -0.2588190451025207 0.9659258262890683 -5.361965462131021e-17
vn -0.7071067811865474 0.7071067811865477 -2.310685973604933e-16
vn -0.9659258262890683 0.2588190451025207 -2.0011127533102507e-16
vn -0.9659258262890684 -0.2588190451025206 -2.3106859736049333e-16
vn -0.7071067811865477 -0.7071067811865474 -2.00111275331025e-16
vn -0.2588190451025207 -0.9659258262890683 -5.361965462131021e-17
vn -0.22414386804201336 0.9659258262890683 0.12940952255126034
vn -0.6123724356957946 0.7071067811865477 0.3535533905932736
vn -0.8365163037378082 0.25881904510252063 0.48296291314453377
vn -0.836516303737808 -0.2588190451025205 0.48296291314453405
vn -0.6123724356957948 -0.7071067811865475 0.3535533905932738
vn -0.22414386804201336 -0.9659258262890683 0.12940952255126034
vn -0.12940952255126045 0.9659258262890683 0.22414386804201333
vn -0.3535533905932738 0.7071067811865477 0.6123724356957944
vn -0.4829629131445341 0.2588190451025208 0.8365163037378079
vn -0.48296291314453443 -0.25881904510252085 0.8365163037378079
vn -0.353553390593274 -0.7071067811865475 0.6123724356957946
vn -0.12940952255126045 -0.9659258262890683 0.22414386804201333
vn 0 0.9659258262890683 0.2588190451025207
vn 0 0.7071067811865477 0.7071067811865475
vn 0 0.25881904510252063 0.9659258262890683
vn 0 -0.2588190451025205 0.9659258262890683
vn 0 -0.7071067811865474 0.7071067811865477
vn 0 -0.9659258262890683 0.2588190451025207
usemtl m_2ff590ea-d507-8205-af02-c50c1b22ba56
f 3/1/1 8/2/1 2/3/1
f 3/4/2 4/5/2 9/6/2 8/7/2
f 4/8/3 5/9/3 10/10/3 9/11/3
f 5/12/4 6/13/4 11/14/4 10/15/4
f 6/16/5 7/17/5 12/18/5 11/19/5
f 12/20/6 7/21/6 1/22/6
f 8/23/7 13/24/7 2/25/7
f 8/26/8 9/27/8 14/28/8 13/29/8
f 9/30/9 10/31/9 15/32/9 14/33/9
f 10/34/10 11/35/10 16/36/10 15/37/10
f 11/38/11 12/39/11 17/40/11 16/41/11
f 17/42/12 12/43/12 1/44/12
f 13/45/13 18/46/13 2/47/13
f 13/48/14 14/49/14 19/50/14 18/51/14
f 14/52/15 15/53/15 20/54/15 19/55/15
f 15/56/16 16/57/16 21/58/16 20/59/16
f 16/60/17 17/61/17 22/62/17 21/63/17
f 22/64/18 17/65/18 1/66/18
f 18/67/19 23/68/19 2/69/19
f 18/70/20 19/71/20 24/72/20 23/73/20
f 19/74/21 20/75/21 25/76/21 24/77/21
f 20/78/22 21/79/22 26/80/22 25/81/22
f 21/82/23 22/83/23 27/84/23 26/85/23
f 27/86/24 22/87/24 1/88/24
f 23/89/25 28/90/25 2/91/25
f 23/92/26 24/93/26 29/94/26 28/95/26
f 24/96/27 25/97/27 30/98/27 29/99/27
f 25/100/28 26/101/28 31/102/28 30/103/28
f 26/104/29 27/105/29 32/106/29 31/107/29
f 32/108/30 27/109/30 1/110/30
f 28/111/31 33/112/31 2/113/31
f 28/114/32 29/115/32 34/116/32 33/117/32
f 29/118/33 30/119/33 35/120/33 34/121/33
f 30/122/34 31/123/34 36/124/34 35/125/34
f 31/126/35 32/127/35 37/128/35 36/129/35
f 37/130/36 32/131/36 1/132/36
f 33/133/37 38/134/37 2/135/37
f 33/136/38 34/137/38 39/138/38 38/139/38
f 34/140/39 35/141/39 40/142/39 39/143/39
f 35/144/40 36/145/40 41/146/40 40/147/40
f 36/148/41 37/149/41 42/150/41 41/151/41
f 42/152/42 37/153/42 1/154/42
f 38/155/43 43/156/43 2/157/43
f 38/158/44 39/159/44 44/160/44 43/161/44
f 39/162/45 40/163/45 45/164/45 44/165/45
f 40/166/46 41/167/46 46/168/46 45/169/46
f 41/170/47 42/171/47 47/172/47 46/173/47
f 47/174/48 42/175/48 1/176/48
f 43/177/49 48/178/49 2/179/49
f 43/180/50 44/181/50 49/182/50 48/183/50
f 44/184/51 45/185/51 50/186/51 49/187/51
f 45/188/52 46/189/52 51/190/52 50/191/52
f 46/192/53 47/193/53 52/194/53 51/195/53
f 52/196/54 47/197/54 1/198/54
f 48/199/55 53/200/55 2/201/55
f 48/202/56 49/203/56 54/204/56 53/205/56
f 49/206/57 50/207/57 55/208/57 54/209/57
f 50/210/58 51/211/58 56/212/58 55/213/58
f 51/214/59 52/215/59 57/216/59 56/217/59
f 57/218/60 52/219/60 1/220/60
f 53/221/61 58/222/61 2/223/61
f 53/224/62 54/225/62 59/226/62 58/227/62
f 54/228/63 55/229/63 60/230/63 59/231/63
f 55/232/64 56/233/64 61/234/64 60/235/64
f 56/236/65 57/237/65 62/238/65 61/239/65
f 62/240/66 57/241/66 1/242/66
f 58/243/67 3/244/67 2/245/67
f 58/246/68 59/247/68 4/248/68 3/249/68
f 59/250/69 60/251/69 5/252/69 4/253/69
f 60/254/70 61/255/70 6/256/70 5/257/70
f 61/258/71 62/259/71 7/260/71 6/261/71
f 7/262/72 62/263/72 1/264/72
o cube
v 0.125 1.0500000000000003 0.125
v 0.125 1.0500000000000003 -0.125
v 0.0625 0.8937500000000003 0.0625
v 0.0625 0.8937500000000003 -0.0625
v -0.125 1.0500000000000003 0.125
v -0.125 1.0500000000000003 -0.125
v -0.0625 0.8937500000000003 0.0625
v -0.0625 0.8937500000000003 -0.0625
v 0.02778650106407099 1.0125000000000002 -0.04196144697628945
v -0.05732976949304158 1.0125000000000002 -0.033574276545908444
v -0.041069132472380976 1.0125000000000002 0.04690127176482073
v 0.056030066171330106 1.0125000000000002 0.06311676931590182
vt 0.5625 0.5625
vt 0.625 0.75
vt 0.375 0.75
vt 0.4375 0.5625
vt 0.5 0.3125
vt 0.5625 0.5
vt 0.3125 0.5
vt 0.375 0.3125
vt 0.75 0.375
vt 0.75 0.5
vt 0.625 0.5
vt 0.625 0.375
vt 0.1875 0.4375
vt 0.25 0.625
vt 0 0.625
vt 0.0625 0.4375
vt 0.5625 0.8125
vt 0.625 1
vt 0.375 1
vt 0.4375 0.8125
vt 0.18811875 0.29649375
vt 0.25 0.375
vt 0 0.375
vt 0.0830375 0.27168125
vt 0.2931031348950324 1
vt 0.04311016505347556 0.9981251587271369
vt 0.196576654474038 0.9081610301122918
vt 0.196576654474038 0.9081610301122918
vt 0.11145765449693171 0.8997735054798461
vt 0.043109384592552424 0.9981247540872769
vt 0.019396865104967576 0.7492518619926356
vt 0.11798546203406324 0.8183120791557377
vt 0.04177483455253028 0.7350747673490892
vt 0.2917050198807569 0.7291669367998719
vt 0.2244655515558034 0.8031390516958924
vt 0.12772040447403799 0.8192985301122918
vt 0.196576654474038 0.9081610301122918
vt 0.111457904474038 0.8997735301122918
vt 0.12772040447403799 0.8192985301122918
vt 0.224820404474038 0.8030797801122918
vt 0.11145765449693171 0.8997735054798461
vt 0.196576654474038 0.9081610301122918
vt 0.043108373571766584 0.9981262089179082
vn 0.9284766908852594 -0.3713906763541037 0
vn -0.9284766908852594 -0.3713906763541037 0
vn 0 -1 0
vn 0 -0.3713906763541037 0.9284766908852594
vn 0 -0.3713906763541037 -0.9284766908852594
vn -0.4776739944474079 0.878537167699044 0
vn 0 0.9113758775399168 0.41157503548969854
vn 0.4847085537307237 0.8746757215907335 0
vn 0 0.8552283870425772 -0.5182512961841501
vn 0 1 0
vn 0.03516449807470221 0.9334946417481442 0.3568630155993444
usemtl m_753ac63c-f1dd-47ab-dac2-90b4ca60dfaf
f 66/265/73 64/266/73 63/267/73 65/268/73
f 69/269/74 67/270/74 68/271/74 70/272/74
f 66/273/75 65/274/75 69/275/75 70/276/75
f 65/277/76 63/278/76 67/279/76 69/280/76
f 70/281/77 68/282/77 64/283/77 66/284/77
f 74/285/78 63/286/78 64/287/78 71/288/78
f 64/289/79 68/290/79 71/291/79 71/291/79
f 72/293/80 68/294/80 67/295/80 73/296/80
f 67/297/81 63/298/81 74/299/81 73/300/81
f 71/301/82 72/302/82 73/303/82 74/304/82
f 72/305/83 71/306/83 68/307/83
o cylinder
v 0 0.96875 0
v 0 1.21875 0
v -0.01037658773652742 0.96875 0.03125
v -0.015415566327471097 1.2242022327542554 0.062499999999999924
v 0.004126587736527411 0.96875 0.022876587736527416
v 0.012010477302428425 1.2336457768993168 0.04575317547305479
v 0.0125 0.96875 0.008373412263472583
v 0.027844910974957324 1.2390980096535722 0.01674682452694524
v 0.0125 0.96875 -0.008373412263472586
v 0.027844910974957324 1.2390980096535722 -0.01674682452694525
v 0.004126587736527411 0.96875 -0.022876587736527412
v 0.012010477302428425 1.233645776899317 -0.04575317547305482
v -0.010376587736527412 0.96875 -0.031249999999999993
v -0.015415566327471118 1.2242022327542554 -0.06249999999999994
v -0.027123412263472573 0.96875 -0.03125
v -0.047084433672528875 1.2132977672457446 -0.06249999999999995
v -0.041626587736527415 0.96875 -0.022876587736527416
v -0.07451047730242841 1.203854223100683 -0.04575317547305482
v -0.05 0.96875 -0.008373412263472579
v -0.09034491097495737 1.1984019903464278 -0.016746824526945234
v -0.05 0.96875 0.008373412263472569
v -0.09034491097495737 1.1984019903464278 0.016746824526945214
v -0.041626587736527415 0.96875 0.022876587736527405
v -0.07451047730242841 1.203854223100683 0.04575317547305476
v -0.027123412263472584 0.96875 0.03125
v -0.0470844336725289 1.2132977672457446 0.062499999999999924
v -0.04166678396194805 1.0520842716955843 -0.011164581113806027
v -0.030502202848142007 1.0520842716955843 -0.03050220284814201
v -0.048942489330911 1.1176044648974173 -0.013955734249374534
v -0.035828388839124516 1.1223776071256033 -0.03812777502622033
v -0.011164581113806015 1.0520842716955843 -0.04166678396194805
v -0.013114100491786405 1.130644931976574 -0.05208350927559496
v 0.011164581113806043 1.0520842716955843 -0.041666783961948034
v 0.013114100491786433 1.1401912164329462 -0.05208350927559494
v 0.03050220284814201 1.0520842716955843 -0.030502202848142007
v 0.03582838883912452 1.148458541283917 -0.03812777502622032
v 0.04166678396194805 1.0520842716955843 -0.011164581113806036
v 0.04894248933091099 1.1532316835121028 -0.013955734249374546
v 0.04166678396194805 1.0520842716955843 0.01116458111380603
v 0.04894248933091099 1.1532316835121028 0.01395573424937454
v 0.030502202848142007 1.0520842716955843 0.03050220284814201
v 0.03582838883912451 1.148458541283917 0.03812777502622033
v 0.01116458111380603 1.0520842716955843 0.04166678396194805
v 0.013114100491786417 1.1401912164329462 0.05208350927559496
v -0.011164581113806029 1.0520842716955843 0.04166678396194805
v -0.013114100491786419 1.130644931976574 0.05208350927559496
v -0.03050220284814201 1.0520842716955843 0.030502202848141997
v -0.035828388839124516 1.1223776071256033 0.038127775026220306
v -0.04166678396194805 1.0520842716955843 0.011164581113806013
v -0.048942489330911 1.1176044648974173 0.013955734249374517
vt 0.522875 0.741625
vt 0.508375 0.75
vt 0.51875 0.71875
vt 0.07060889664355188 0.573421751050371
vt 0.09195600486267844 0.48667872970611015
vt 0.11930415137825712 0.49226564726299604
vt 0.10352242986780999 0.5796391028586699
vt 0.5319084794587949 0.5760656555313299
vt 0.5157629246892077 0.6054167789168966
vt 0.46874669275403935 0.5896416579211339
vt 0.53125 0.727125
vt 0.522875 0.741625
vt 0.51875 0.71875
vt 0.03092383469296829 0.9593262351586156
vt 0.05248540598569748 0.8731996998242539
vt 0.07979280260951242 0.8789887111500039
vt 0.0637485694160883 0.9659897752777491
vt 0.5157629246892077 0.6054167789168966
vt 0.48735608730380026 0.6231644225741266
vt 0.4687438715723778 0.5896407113441704
vt 0.53125 0.710375
vt 0.53125 0.727125
vt 0.51875 0.71875
vt 0.06374841751146446 0.9659905989920246
vt 0.07979280260951242 0.8789887111500039
vt 0.10738831205609999 0.8831834119299519
vt 0.09685561402172335 0.9710231128251998
vt 0.48358106735630235 0.625
vt 0.45014391269619974 0.6231644225741266
vt 0.4687528812610345 0.5896465600339005
vt 0.522875 0.695875
vt 0.53125 0.710375
vt 0.51875 0.71875
vt 0.12375207951164309 0.9659851050201377
vt 0.10770562224816574 0.8789853914884029
vt 0.13500620870920926 0.8731939334081277
vt 0.15657616530703172 0.9593183690677043
vt 0.45014391269619974 0.6231644225741266
vt 0.42173707531079224 0.6054167789168966
vt 0.4687561284276222 0.5896407113441704
vt 0.508375 0.6875
vt 0.522875 0.695875
vt 0.51875 0.71875
vt 0.27135783497012467 0.9546301936692364
vt 0.255685259300764 0.8672431993386258
vt 0.28303418464910185 0.8616900125190108
vt 0.3042785228973853 0.9484604127151895
vt 0.42173707531079224 0.6054167789168966
vt 0.40559152054120506 0.5760656555313299
vt 0.46875330724596065 0.5896416579211339
vt 0.491625 0.6875
vt 0.508375 0.6875
vt 0.51875 0.71875
vt 0.30868962233864683 0.9472487046240735
vt 0.28303732060458564 0.8616798192608344
vt 0.30959370899014216 0.8530887882376987
vt 0.3407323798584534 0.937492862469145
vt 0.40559152054120506 0.5760656555313299
vt 0.4060011899390328 0.5425763874408731
vt 0.46875040556278463 0.5896410342329865
vt 0.477125 0.695875
vt 0.491625 0.6875
vt 0.51875 0.71875
vt 0.33755993277758223 0.9378763784530058
vt 0.3096654262847336 0.8523406675735992
vt 0.3359944266784441 0.843086627704818
vt 0.36931982185749446 0.9272414496212426
vt 0.4060011899390328 0.5425763874408731
vt 0.4229469376847438 0.5136863130386891
vt 0.4687524445136498 0.589642563535008
vt 0.46875 0.710375
vt 0.477125 0.695875
vt 0.51875 0.71875
vt 0.23316160081596538 0.625
vt 0.21579881920479396 0.5361634711743797
vt 0.24304516220573735 0.5300979438931004
vt 0.2659194056050467 0.6179970977828516
vt 0.4229469376847438 0.5136863130386891
vt 0.45200625 0.4970325186432848
vt 0.46874993320079095 0.5896383991905484
vt 0.46875 0.727125
vt 0.46875 0.710375
vt 0.51875 0.71875
vt 0.4665546652674086 0.96920625
vt 0.4693421652674086 0.87841875
vt 0.4972546652674086 0.87841875
vt 0.5000421652674085 0.96920625
vt 0.45200625 0.4970325186432848
vt 0.48549375 0.4970325186432848
vt 0.46875 0.5896387686432848
vt 0.477125 0.741625
vt 0.46875 0.727125
vt 0.51875 0.71875
vt 0.5000422427989546 0.9692087751642112
vt 0.4972546652674086 0.87841875
vt 0.5251007676963089 0.8765732927851916
vt 0.5334453347325915 0.9667041988730979
vt 0.48549375 0.4970325186432848
vt 0.5145530623152562 0.5136863130386891
vt 0.46875006679920905 0.5896383991905484
vt 0.491625 0.75
vt 0.477125 0.741625
vt 0.51875 0.71875
vt 0.005695848621742883 0.5522258958930488
vt 0.0390441279175356 0.4680824638806671
vt 0.06536992300047943 0.47734561825031085
vt 0.0374522063385547 0.5628655711641455
vt 0.5145530623152562 0.5136863130386891
vt 0.5314988100609672 0.5425763874408731
vt 0.4687475554863502 0.589642563535008
vt 0.508375 0.75
vt 0.491625 0.75
vt 0.51875 0.71875
vt 0.034144797954707984 0.561709741549987
vt 0.06536839125332353 0.47733959102477064
vt 0.09191524911187121 0.4859530616899883
vt 0.06617699701727058 0.5715001955150165
vt 0.5314988100609672 0.5425763874408731
vt 0.5319084794587949 0.5760656555313299
vt 0.46874959443721537 0.5896410342329865
vt 0.24163254235215337 0.3804959471261644
vt 0.23884502718646564 0.46424640277687157
vt 0.21654305389224832 0.4652601148582922
vt 0.22489981882793658 0.3812565149812057
vt 0.23884502718646564 0.46424640277687157
vt 0.24304516220573735 0.5300979438931004
vt 0.21580139830128617 0.5361628970209921
vt 0.21653680684384252 0.4652603988111227
vt 0.3430043358926637 0.6884872738256779
vt 0.3326137141588811 0.7722612338982173
vt 0.31030367409764315 0.7730783859440185
vt 0.32626556003484797 0.6891003666259989
vt 0.3326137141588811 0.7722612338982173
vt 0.3359944266784441 0.843086627704818
vt 0.30966176215037844 0.8523419554328001
vt 0.310303631258269 0.7730783875131005
vt 0.32626556003484797 0.6891003666259989
vt 0.310303060034848 0.773081616625999
vt 0.287978060034848 0.773081616625999
vt 0.309515560034848 0.6891003666259989
vt 0.31027241789903 0.7738227662305235
vt 0.30959370899014216 0.8530887882376987
vt 0.2830347061891862 0.8616806650280929
vt 0.287978060034848 0.773081616625999
vt 0.30951725249890427 0.6890937671949124
vt 0.287978060034848 0.773081616625999
vt 0.26575435035633044 0.7709573866184514
vt 0.292843248596769 0.6875
vt 0.287978060034848 0.773081616625999
vt 0.28303418464910185 0.8616900125190108
vt 0.25568017814250554 0.867244231065493
vt 0.26579113499998963 0.7709609026400791
vt 0.13028473746416303 0.6890015584114169
vt 0.1272063021093312 0.7766889274053526
vt 0.10489921045159575 0.7775829558016518
vt 0.1135481737343951 0.6896723299965463
vt 0.1272063021093312 0.7766889274053526
vt 0.13500620870920926 0.8731939334081277
vt 0.10770521354122 0.878985478190172
vt 0.10491155260951243 0.7775824611500038
vt 0.09050772462563683 0.6875
vt 0.10472271037562375 0.7746801983975012
vt 0.0825862880906407 0.7775757870113941
vt 0.07389921070521283 0.6896725020955299
vt 0.10491155260951243 0.7775824611500038
vt 0.10770530260951243 0.8789887111500039
vt 0.07979280260951242 0.8789887111500039
vt 0.08258655260951242 0.7775824611500038
vt 0.07389921070521283 0.6896725020955299
vt 0.08258663873231956 0.7775793351040415
vt 0.06027915802501026 0.7766950673318007
vt 0.05716235507934807 0.689009053710982
vt 0.08258663873231956 0.7775793351040415
vt 0.07979280260951242 0.8789887111500039
vt 0.05248604392406248 0.8731998350635253
vt 0.060291542381777544 0.7766955582472794
vt 0.08222166603483311 0.3125
vt 0.1093105642752717 0.39595738661845137
vt 0.08708685459675414 0.39808161662599895
vt 0.06554766213269789 0.31409376719491255
vt 0.1093105642752717 0.39595738661845137
vt 0.11930415137825712 0.49226564726299604
vt 0.09195457413676665 0.48667843742496
vt 0.08711764798298091 0.3980786732724363
vt 0.06554766213269789 0.31409376719491255
vt 0.08708516213269789 0.39807501719491256
vt 0.06476016213269789 0.39807501719491256
vt 0.048797662132697886 0.31409376719491255
vt 0.0870609054957704 0.397342106590284
vt 0.09191524911187121 0.4859530616899883
vt 0.06536988035471558 0.4773400741829368
vt 0.06476016213269789 0.39807501719491256
vt 0.04879827619549302 0.31409699787689294
vt 0.06476016213269789 0.39807501719491256
vt 0.04245012207145991 0.3972578651491113
vt 0.0320595003376773 0.31348390507657187
vt 0.06476016213269789 0.39807501719491256
vt 0.06536992300047943 0.47734561825031085
vt 0.03904222471636955 0.46808179420872964
vt 0.04245010021462611 0.3972578643485589
vt 0.27511525071068244 0.3812569706319128
vt 0.28347201564637065 0.4652605705089994
vt 0.26117004235215335 0.46424685842757873
vt 0.25838252718646565 0.3804964027768716
vt 0.28347201564637065 0.4652605705089994
vt 0.28420118079520607 0.5361627814300858
vt 0.25695741689075485 0.5300978283021942
vt 0.26116379530374756 0.46424657447474815
vt 0.25838252718646565 0.3804964027768716
vt 0.26117002718646565 0.46424640277687157
vt 0.23884502718646564 0.46424640277687157
vt 0.24163252718646563 0.3804964027768716
vt 0.49446091526740854 0.8125
vt 0.4972546652674086 0.87841875
vt 0.4693421652674086 0.87841875
vt 0.47213591526740856 0.8125
vn 0 -1 0
vn 0.5051502148015816 0.06484170317277252 0.8605921298824258
vn -0.4169790166155369 0.8908016577199037 -0.18055721061705512
vn 0 -1 0
vn 0.8462038673122592 0.1921037099510668 0.49702633689656023
vn -0.5314510951627429 0.836604576123611 -0.13286277379068442
vn 0 -1 0
vn 0.9711164994701025 0.23860583491803883 0
vn -0.5900129125129436 0.8073938091588229 0
vn 0 -1 0
vn 0.846288048545866 0.19177988371277369 -0.4970080634069684
vn -0.5314510951627424 0.8366045761236113 0.13286277379068556
vn 0 -1 0
vn 0.505326292097871 0.06425741313618098 -0.8605325812377259
vn -0.41697901661553693 0.8908016577199034 0.180557210617056
vn 0 -1 0
vn 0.03989003352395789 -0.10959696636835917 -0.9931753572196154
vn -0.32133847268110144 0.9332346877761891 0.1606692363405517
vn 0 -1 0
vn -0.4251686822943759 -0.28309038910820317 -0.8597042649601259
vn -0.26107068579384585 0.9586774693348218 0.11304692304044872
vn 0 -1 0
vn -0.7654059623489757 -0.40982429476050175 -0.4961831922029364
vn -0.22946872731236595 0.9716239548481428 0.05736718182809154
vn 0 -1 0
vn -0.8899614600480664 -0.4560357438064634 0
vn -0.21972190701908834 0.9755625472392303 0
vn 0 -1 0
vn -0.7655911384636899 -0.40944684127594305 0.49620912211992224
vn -0.22946872731236598 0.9716239548481428 -0.05736718182809161
vn 0 -1 0
vn -0.4254456170783669 -0.28245244743279735 0.8597770884642314
vn -0.261070685793845 0.958677469334822 -0.11304692304044738
vn 0 -1 0
vn 0.039632398619557474 -0.10888912028605723 0.9932635261918105
vn -0.321338472681101 0.9332346877761893 -0.1606692363405507
vn -0.8639202131336107 0.06968371726763371 -0.49878456761104906
vn -0.8631125849551751 -0.1167749342493435 -0.4913250252358994
vn -0.4999609341611526 -0.012500290029828163 -0.8659577397667151
vn -0.48408587951005144 -0.13054141332884164 -0.865228178381338
vn 6.359752193412221e-16 -0.12403473458920863 -0.9922778767136676
vn 0.047367615737993723 -0.130141454653538 -0.9903633226043658
vn 0.48646841390310624 -0.23107126411214476 -0.842588009157626
vn 0.549092399699549 -0.1100990805316085 -0.8284779593074791
vn 0.8248585716068473 -0.3046491683816243 -0.476232318360584
vn 0.882733468588572 -0.08534499348740093 -0.4620582815189274
vn 0.9438591019848435 -0.33034829438089297 0
vn 0.997422911624336 -0.07174632650409242 0
vn 0.8248585716068473 -0.3046491683816243 0.47623231836058383
vn 0.8826488416332736 -0.07628896612277512 0.46380062096913865
vn 0.4864684139031063 -0.2310712641121448 0.8425880091576259
vn 0.5462115876609217 -0.09602823799109907 0.8321246775653635
vn 0 -0.1240347345892085 0.9922778767136676
vn 0.043036117126064345 -0.11824076002486453 0.9920519216711664
vn -0.4999609341611532 -0.012500290029828023 0.8659577397667148
vn -0.4853705786634469 -0.12674868525691488 0.8650723508201812
vn -0.8639202131336109 0.06968371726763374 0.49878456761104906
vn -0.8627483079737212 -0.11869077102938817 0.49150570491188666
vn -0.9950374398085078 0.09950122300419378 0
vn -0.9938909185079507 -0.11036685239428641 0
usemtl m_625350ca-c8b8-6207-8700-4dfc44f3300e
f 79/308/84 77/309/84 75/310/84
f 78/311/85 118/312/85 116/313/85 80/314/85
f 78/315/86 80/316/86 76/317/86
f 81/318/87 79/319/87 75/320/87
f 80/321/88 116/322/88 114/323/88 82/324/88
f 80/325/89 82/326/89 76/327/89
f 83/328/90 81/329/90 75/330/90
f 82/331/91 114/332/91 112/333/91 84/334/91
f 82/335/92 84/336/92 76/337/92
f 85/338/93 83/339/93 75/340/93
f 84/341/94 112/342/94 110/343/94 86/344/94
f 84/345/95 86/346/95 76/347/95
f 87/348/96 85/349/96 75/350/96
f 86/351/97 110/352/97 108/353/97 88/354/97
f 86/355/98 88/356/98 76/357/98
f 89/358/99 87/359/99 75/360/99
f 88/361/100 108/362/100 106/363/100 90/364/100
f 88/365/101 90/366/101 76/367/101
f 91/368/102 89/369/102 75/370/102
f 90/371/103 106/372/103 104/373/103 92/374/103
f 90/375/104 92/376/104 76/377/104
f 93/378/105 91/379/105 75/380/105
f 92/381/106 104/382/106 103/383/106 94/384/106
f 92/385/107 94/386/107 76/387/107
f 95/388/108 93/389/108 75/390/108
f 94/391/109 103/392/109 124/393/109 96/394/109
f 94/395/110 96/396/110 76/397/110
f 97/398/111 95/399/111 75/400/111
f 96/401/112 124/402/112 122/403/112 98/404/112
f 96/405/113 98/406/113 76/407/113
f 99/408/114 97/409/114 75/410/114
f 98/411/115 122/412/115 120/413/115 100/414/115
f 98/415/116 100/416/116 76/417/116
f 77/418/117 99/419/117 75/420/117
f 100/421/118 120/422/118 118/423/118 78/424/118
f 100/425/119 78/426/119 76/427/119
f 93/428/120 101/429/120 102/430/120 91/431/120
f 101/432/121 103/433/121 104/434/121 102/435/121
f 91/436/122 102/437/122 105/438/122 89/439/122
f 102/440/123 104/441/123 106/442/123 105/443/123
f 89/444/124 105/445/124 107/446/124 87/447/124
f 105/448/125 106/449/125 108/450/125 107/451/125
f 87/452/126 107/453/126 109/454/126 85/455/126
f 107/456/127 108/457/127 110/458/127 109/459/127
f 85/460/128 109/461/128 111/462/128 83/463/128
f 109/464/129 110/465/129 112/466/129 111/467/129
f 83/468/130 111/469/130 113/470/130 81/471/130
f 111/472/131 112/473/131 114/474/131 113/475/131
f 81/476/132 113/477/132 115/478/132 79/479/132
f 113/480/133 114/481/133 116/482/133 115/483/133
f 79/484/134 115/485/134 117/486/134 77/487/134
f 115/488/135 116/489/135 118/490/135 117/491/135
f 77/492/136 117/493/136 119/494/136 99/495/136
f 117/496/137 118/497/137 120/498/137 119/499/137
f 99/500/138 119/501/138 121/502/138 97/503/138
f 119/504/139 120/505/139 122/506/139 121/507/139
f 97/508/140 121/509/140 123/510/140 95/511/140
f 121/512/141 122/513/141 124/514/141 123/515/141
f 95/516/142 123/517/142 101/518/142 93/519/142
f 123/520/143 124/521/143 103/522/143 101/523/143