# Blender 5.2.0 LTS
# www.blender.org
mtllib CorridorCorner.mtl
o corridor-corner
v 2.000000 0.900000 -2.000000
v 1.695518 0.900000 -0.469266
v 1.399002 0.900000 -2.000000
v 1.140269 0.900000 -0.699258
v 0.828427 0.900000 0.828427
v 0.403458 0.900000 0.403458
v -0.469266 0.900000 1.695518
v -0.699258 0.900000 1.140269
v -2.000000 0.900000 2.000000
v -2.000000 0.900000 1.399002
v 1.399002 0.200000 -2.000000
v 2.000000 0.200000 -2.000000
v 1.140269 0.200000 -0.699258
v 0.403458 0.200000 0.403458
v -0.699258 0.200000 1.140269
v -2.000000 0.200000 1.399002
v -2.000000 0.200000 2.000000
v -0.469266 0.200000 1.695518
v 0.828427 0.200000 0.828427
v 1.695518 0.200000 -0.469266
v -2.000000 0.900000 -1.399002
v -2.000000 0.900000 -2.000000
v -1.699501 0.900000 -1.479521
v -1.399002 0.900000 -2.000000
v -1.479521 0.900000 -1.699501
v -2.000000 0.200000 -1.399002
v -2.000000 0.200000 -2.000000
v -1.399002 0.200000 -2.000000
v -1.479521 0.200000 -1.699501
v -1.699501 0.200000 -1.479521
v 1.600000 0.900000 -2.000000
v 1.600000 4.050000 -2.000000
v 1.325966 0.900000 -0.622340
v 1.325966 4.050000 -0.622340
v 0.545584 0.900000 0.545584
v 0.545584 4.050000 0.545584
v -0.622340 0.900000 1.325966
v -0.622340 4.050000 1.325966
v -0.469266 4.050000 1.695518
v -2.000000 4.050000 2.000000
v 0.828427 4.050000 0.828427
v 1.695518 4.050000 -0.469267
v 2.000000 4.050000 -2.000000
v -2.000000 0.900000 1.600000
v -2.000000 4.050000 1.600000
v -1.700496 0.900000 1.570049
v -1.700496 0.900000 1.470049
v -2.000000 0.900000 1.600000
v -2.000000 0.900000 1.500000
v -2.000000 4.100000 1.499999
v -1.700496 4.100000 1.470049
v -1.700496 4.150000 1.520298
v -1.700496 4.150000 1.940049
v -2.000000 4.150000 1.550249
v -2.000000 4.150000 1.949999
v -1.700496 4.050000 1.990049
v -2.000000 4.050000 1.999999
v -1.700496 4.100000 1.990049
v -2.000000 4.100000 1.999999
v -1.700496 4.050000 1.570049
v -2.000000 4.050000 1.599999
v 1.570049 0.900000 -1.700496
v 1.470049 0.900000 -1.700496
v 1.600000 0.900000 -2.000000
v 1.500000 0.900000 -2.000000
v 1.500000 4.100000 -2.000000
v 1.470049 4.100000 -1.700496
v 1.520299 4.150000 -1.700496
v 1.940049 4.150000 -1.700496
v 1.550249 4.150000 -2.000000
v 1.950000 4.150000 -2.000000
v 1.990049 4.050000 -1.700496
v 2.000000 4.050000 -2.000000
v 1.990049 4.100000 -1.700496
v 2.000000 4.100000 -2.000000
v 1.570049 4.050000 -1.700496
v 1.600000 4.050000 -2.000000
v 2.000000 -0.000000 -2.000000
v 0.998005 -0.000000 -2.000000
v 1.695518 -0.000000 -0.469266
v 0.828427 0.000000 0.828427
v 0.769795 -0.000000 -0.852713
v -0.469266 0.000000 1.695518
v 0.119910 0.000000 0.119910
v -0.852713 0.000000 0.769795
v -2.000000 0.000000 2.000000
v -2.000000 0.000000 0.998005
v 0.998005 0.200000 -2.000000
v 0.769795 0.200000 -0.852713
v 0.119910 0.200000 0.119910
v -0.852713 0.200000 0.769795
v -2.000000 0.200000 0.998005
v 0.483708 0.200000 -0.460473
v 0.483708 -0.000000 -0.460473
v 0.992029 0.200000 -0.080841
v 0.992029 -0.000000 -0.080840
v -0.473375 0.000000 0.298757
v -0.161305 -0.000000 -0.161306
v -0.473375 0.200000 0.298757
v -0.161305 0.200000 -0.161306
v 0.298758 -0.000000 -0.473376
v 0.298758 0.200000 -0.473376
v -0.460472 0.000000 0.483707
v -0.460472 0.200000 0.483707
v -0.080839 0.000000 0.992028
v -0.080839 0.200000 0.992028
v -0.955532 2.509939 1.392243
v -1.333537 2.509939 1.467432
v -0.906493 2.559939 1.382488
v -1.382576 2.559939 1.477187
v -0.906493 2.759939 1.382488
v -1.382576 2.759939 1.477187
v -0.955532 2.809939 1.392243
v -1.333537 2.809939 1.467432
v -1.343292 2.809939 1.418393
v -1.392331 2.759939 1.428148
v -0.965287 2.509939 1.343203
v -1.343292 2.509939 1.418393
v -0.916248 2.759939 1.333449
v -0.916248 2.559939 1.333449
v -1.392331 2.559939 1.428148
v -0.965287 2.809939 1.343203
v -0.823933 3.227393 1.366065
v -0.833688 3.227393 1.317026
v -1.201938 3.227393 1.441255
v -1.211692 3.227393 1.392216
v -0.774894 3.477393 1.356311
v -0.823933 3.527393 1.366065
v -0.784648 3.477393 1.307272
v -0.833688 3.527393 1.317026
v -1.260732 3.277393 1.401970
v -0.784648 3.277393 1.307272
v -1.260732 3.477393 1.401970
v -1.211692 3.527393 1.392216
v -0.774894 3.277393 1.356311
v -1.201938 3.527393 1.441255
v -1.250977 3.277393 1.451010
v -1.250977 3.477393 1.451010
v -0.168301 2.109087 1.022587
v -0.488758 2.109087 1.236710
v -0.196079 2.109087 0.981014
v -0.516536 2.109087 1.195136
v -0.168301 1.809087 1.022587
v -0.196079 1.809087 0.981014
v -0.488758 1.809087 1.236710
v -0.516536 1.809087 1.195136
v -0.126728 1.859087 0.994809
v -0.154506 1.859087 0.953235
v -0.530331 1.859087 1.264488
v -0.558110 1.859087 1.222915
v -0.558110 2.059087 1.222915
v -0.530331 2.059087 1.264488
v -0.154506 2.059087 0.953235
v -0.126728 2.059087 0.994809
v 1.396364 1.859719 -0.976254
v 1.386609 1.809719 -0.927215
v 1.347325 1.859719 -0.986009
v 1.337570 1.809719 -0.936969
v 1.471553 1.859719 -1.354259
v 1.422514 1.859719 -1.364013
v 1.432269 1.609719 -1.413052
v 1.481308 1.609719 -1.403298
v 1.432269 1.809719 -1.413052
v 1.481308 1.809719 -1.403298
v 1.386609 1.609719 -0.927215
v 1.337570 1.609719 -0.936969
v 1.422514 1.559719 -1.364013
v 1.347325 1.559719 -0.986009
v 1.471553 1.559719 -1.354259
v 1.396364 1.559719 -0.976254
v -1.999999 4.050000 -1.600001
v -1.999999 0.900000 -1.600000
v -1.999999 4.050000 -2.000000
v -1.999999 0.900000 -2.000000
v -1.599999 0.900000 -2.000000
v -1.599999 4.050000 -2.000000
v -1.799999 0.900000 -1.653590
v -1.799999 4.050000 -1.653590
v -1.653589 0.900000 -1.800000
v -1.653589 4.050000 -1.800000
v -2.000000 -0.000000 -2.000000
v -0.998005 -0.000000 -2.000000
v -2.000000 0.200000 -2.000000
v -0.998005 0.200000 -2.000000
v -2.000000 0.200000 -0.998005
v -2.000000 -0.000000 -0.998005
v -1.499002 0.200000 -1.132247
v -1.132247 0.200000 -1.499002
v -1.499002 -0.000000 -1.132247
v -1.132247 -0.000000 -1.499002
v 0.840657 3.857286 0.090399
v 0.465529 3.857286 -0.177550
v 1.108607 3.857286 0.465528
v 0.090400 3.857286 0.090399
v 0.840657 3.857286 0.840657
v -0.177550 3.857286 0.465528
v 0.465528 3.857286 1.108607
v 0.090399 3.857286 0.840657
v 0.840657 4.233286 0.090399
v 1.108607 4.233286 0.465528
v 0.465529 4.233286 -0.177550
v 0.090400 4.233286 0.090399
v 0.840657 4.233286 0.840657
v -0.177550 4.233286 0.465528
v 0.465528 4.233286 1.108606
v 0.090399 4.233286 0.840657
v 0.810647 0.576000 0.120410
v 1.057160 0.576000 0.465528
v 0.465528 0.576000 -0.126104
v 0.120410 0.576000 0.120410
v 0.810647 0.576000 0.810647
v 0.465528 0.576000 1.057160
v -0.126104 0.576000 0.465528
v 0.120410 0.576000 0.810647
v 0.465528 0.200000 -0.126104
v 0.810647 0.200000 0.120410
v 0.120410 0.200000 0.120410
v -0.126104 0.200000 0.465528
v 0.120410 0.200000 0.810647
v 0.465528 0.200000 1.057160
v 0.810647 0.200000 0.810647
v 1.057160 0.200000 0.465528
v 0.232890 0.576000 0.232890
v 0.465528 0.576000 0.066720
v 0.174731 3.857286 0.174731
v 0.465528 3.857286 -0.032982
v 0.174731 3.857286 0.756326
v 0.465529 3.857286 0.964038
v 0.232890 0.576000 0.698166
v 0.465529 0.576000 0.864337
v 0.066720 0.576000 0.465529
v -0.032982 3.857286 0.465528
v 0.698167 0.576000 0.232890
v 0.864337 0.576000 0.465528
v 0.756326 3.857286 0.174731
v 0.964039 3.857286 0.465528
v 0.698167 0.576000 0.698166
v 0.756326 3.857286 0.756326
vn -0.0000 1.0000 -0.0000
vn -0.0000 -0.0000 -1.0000
vn -0.9808 -0.0000 -0.1951
vn -0.9239 -0.0000 -0.3827
vn -0.7071 -0.0000 -0.7071
vn -0.3827 -0.0000 -0.9239
vn -0.1951 -0.0000 -0.9808
vn -1.0000 -0.0000 -0.0000
vn 0.3827 -0.0000 0.9239
vn 0.1951 -0.0000 0.9808
vn 0.7071 -0.0000 0.7071
vn 0.9239 -0.0000 0.3827
vn 0.9808 -0.0000 0.1951
vn 0.9240 -0.0000 0.3824
vn 0.8660 -0.0000 0.5000
vn 0.9659 -0.0000 0.2588
vn 0.8659 -0.0000 0.5003
vn 0.8662 -0.0000 0.4997
vn 0.5000 -0.0000 0.8660
vn 0.2588 -0.0000 0.9659
vn 0.9238 0.0001 0.3830
vn -0.0000 -1.0000 -0.0000
vn -0.0995 -0.0000 -0.9950
vn -0.0916 0.3911 -0.9158
vn -0.0923 0.3739 -0.9229
vn -0.0402 0.9150 -0.4015
vn -0.0360 0.9322 -0.3603
vn 0.0125 0.9267 0.3757
vn 0.0129 0.9209 0.3895
vn 0.0332 -0.0000 0.9994
vn 0.0306 0.3854 0.9222
vn 0.0307 0.3797 0.9246
vn 1.0000 -0.0000 -0.0000
vn -0.0000 -0.0000 1.0000
vn 0.3602 -0.9322 0.0360
vn 0.4015 -0.9150 0.0402
vn 0.9158 -0.3911 0.0916
vn 0.9229 -0.3739 0.0923
vn -0.3895 -0.9209 -0.0129
vn -0.9246 -0.3797 -0.0307
vn -0.3757 -0.9267 -0.0125
vn -0.9222 -0.3854 -0.0306
vn -0.9994 -0.0000 -0.0332
vn 0.9950 -0.0000 0.0995
vn 0.3481 -0.0000 -0.9375
vn 0.5984 -0.0000 -0.8012
vn -0.9656 -0.0000 -0.2602
vn -0.9656 -0.0000 -0.2601
vn -0.2601 -0.0000 -0.9656
vn -0.2602 -0.0000 -0.9656
vn -0.9375 -0.0000 0.3481
vn -0.8012 -0.0000 0.5984
vn -0.3753 0.9239 0.0747
vn -0.9061 0.3827 0.1802
vn 0.3753 -0.9239 -0.0747
vn -0.3753 -0.9239 0.0747
vn 0.9061 0.3827 -0.1802
vn 0.9061 -0.3827 -0.1802
vn -0.9061 -0.3827 0.1802
vn 0.3753 0.9239 -0.0747
vn 0.3182 0.9239 -0.2126
vn -0.3182 0.9239 0.2126
vn 0.3182 -0.9239 -0.2126
vn -0.3182 -0.9239 0.2126
vn 0.7682 -0.3827 -0.5133
vn -0.7682 -0.3827 0.5133
vn -0.7682 0.3827 0.5133
vn -0.5556 -0.0000 -0.8315
vn 0.7682 0.3827 -0.5133
vn 0.5556 -0.0000 0.8315
vn -0.0747 0.9239 0.3753
vn -0.1802 0.3827 0.9061
vn 0.0747 0.9239 -0.3753
vn 0.1802 -0.3827 -0.9061
vn 0.1802 0.3827 -0.9061
vn -0.1802 -0.3827 0.9061
vn 0.0747 -0.9239 -0.3753
vn -0.0747 -0.9239 0.3753
vn 0.5812 -0.0000 -0.8137
vn 0.7071 -0.0000 -0.7071
vn -0.5812 -0.0000 -0.8137
vn -0.8137 -0.0000 -0.5812
vn -0.8137 -0.0000 0.5812
vn -0.7071 -0.0000 0.7071
vn -0.5812 -0.0000 0.8137
vn 0.5812 -0.0000 0.8137
vn 0.8137 -0.0000 0.5812
vn 0.8137 -0.0000 -0.5812
vn 0.7069 -0.0000 -0.7073
vn -0.7069 -0.0000 0.7073
vn -0.7069 -0.0251 -0.7069
vn -0.5811 -0.0247 -0.8135
vn -0.7069 -0.0251 0.7069
vn -0.5811 -0.0247 0.8135
vn -0.8135 -0.0247 -0.5811
vn 0.7069 -0.0251 -0.7069
vn 0.7071 -0.0251 -0.7067
vn 0.8135 -0.0247 -0.5811
vn 0.5811 -0.0247 -0.8135
vn 0.7066 -0.0251 -0.7071
vn 0.7069 -0.0251 0.7069
vn 0.5811 -0.0247 0.8135
vn 0.8135 -0.0247 0.5811
vn -0.8135 -0.0247 0.5811
vt 0.093750 0.225000
vt 0.093750 0.025000
vt 0.343750 0.025000
vt 0.343750 0.225000
vt 0.343750 0.221923
vt 0.343750 0.218846
vt 0.343750 0.105000
vt 0.343750 0.173581
vt 0.343750 0.175943
vt 0.343750 0.185392
vt 0.343750 0.187754
vt 0.343750 0.207477
vt 0.343750 0.219288
vt 0.343750 0.221650
vt 0.343750 0.209839
vt 0.343750 0.154643
vt 0.343750 0.140470
vt 0.343750 0.142832
vt 0.343750 0.152281
vt 0.343750 0.142862
vt 0.343750 0.140500
vt 0.343750 0.131051
vt 0.343750 0.128688
vt 0.218750 0.145000
vt 0.218750 0.225000
vt 0.218750 0.175000
vt 0.218750 0.075000
s 1
usemtl colormap
f 1/1/1 3/1/1 2/1/1
f 4/1/1 2/1/1 3/1/1
f 5/1/1 2/1/1 4/1/1
f 6/1/1 5/1/1 4/1/1
f 7/1/1 5/1/1 6/1/1
f 8/1/1 7/1/1 6/1/1
f 9/1/1 7/1/1 8/1/1
f 10/1/1 9/1/1 8/1/1
f 11/2/2 3/1/2 12/2/2
f 1/1/2 12/2/2 3/1/2
f 11/2/3 13/2/4 3/1/3
f 4/1/4 3/1/3 13/2/4
f 13/2/4 14/2/5 4/1/4
f 6/1/5 4/1/4 14/2/5
f 15/2/6 8/1/6 14/2/5
f 6/1/5 14/2/5 8/1/6
f 16/2/7 10/1/7 15/2/6
f 8/1/6 15/2/6 10/1/7
f 16/2/8 17/2/8 10/1/8
f 9/1/8 10/1/8 17/2/8
f 18/2/9 7/1/9 17/2/10
f 9/1/10 17/2/10 7/1/9
f 19/2/11 5/1/11 18/2/9
f 7/1/9 18/2/9 5/1/11
f 2/1/12 5/1/11 20/2/12
f 19/2/11 20/2/12 5/1/11
f 1/1/13 2/1/14 12/2/13
f 20/2/12 12/2/13 2/1/12
f 21/1/1 23/1/1 22/1/1
f 24/1/1 22/1/1 23/1/1
f 25/1/1 24/1/1 23/1/1
f 21/1/8 22/1/8 26/2/8
f 27/2/8 26/2/8 22/1/8
f 27/2/2 22/1/2 28/2/2
f 24/1/2 28/2/2 22/1/2
f 29/2/15 28/2/16 25/1/17
f 24/1/16 25/1/18 28/2/16
f 30/2/19 29/2/15 23/1/19
f 25/1/17 23/1/19 29/2/15
f 26/2/20 30/2/19 21/1/20
f 23/1/19 21/1/20 30/2/19
f 31/3/3 33/3/4 32/4/3
f 34/4/4 32/4/3 33/3/4
f 33/3/4 35/3/5 34/4/4
f 36/4/5 34/4/4 35/3/5
f 37/3/6 38/4/6 35/3/5
f 36/4/5 35/3/5 38/4/6
f 7/3/9 39/4/9 9/3/10
f 40/4/10 9/3/10 39/4/9
f 5/3/11 41/4/11 7/3/9
f 39/4/9 7/3/9 41/4/11
f 42/4/21 41/4/11 2/3/12
f 5/3/11 2/3/12 41/4/11
f 43/4/13 42/4/14 1/3/13
f 2/3/12 1/3/13 42/4/21
f 44/3/8 9/3/8 45/4/8
f 40/4/8 45/4/8 9/3/8
f 31/3/2 32/4/2 1/3/2
f 43/4/2 1/3/2 32/4/2
f 44/3/7 45/4/7 37/3/6
f 38/4/6 37/3/6 45/4/7
f 43/4/1 32/4/1 42/4/1
f 34/4/1 42/4/1 32/4/1
f 41/4/1 42/4/1 34/4/1
f 36/4/1 41/4/1 34/4/1
f 39/4/1 41/4/1 36/4/1
f 38/4/1 39/4/1 36/4/1
f 40/4/1 39/4/1 38/4/1
f 45/4/1 40/4/1 38/4/1
f 46/3/22 48/3/22 47/3/22
f 49/3/22 47/3/22 48/3/22
f 49/3/23 50/5/24 47/3/23
f 51/5/25 47/3/23 50/5/24
f 52/4/26 54/4/27 53/4/28
f 55/4/29 53/4/28 54/4/27
f 56/6/30 58/5/31 57/6/30
f 59/5/32 57/6/30 58/5/31
f 58/5/31 53/4/28 59/5/32
f 55/4/29 59/5/32 53/4/28
f 51/5/25 50/5/24 52/4/26
f 54/4/27 52/4/26 50/5/24
f 58/5/33 56/6/33 53/4/33
f 56/6/33 60/6/33 53/4/33
f 52/4/33 53/4/33 60/6/33
f 60/6/33 46/3/33 52/4/33
f 46/3/33 47/3/33 52/4/33
f 51/5/33 52/4/33 47/3/33
f 49/3/8 48/3/8 50/5/8
f 54/4/8 50/5/8 48/3/8
f 61/6/8 54/4/8 48/3/8
f 55/4/8 54/4/8 61/6/8
f 57/6/8 55/4/8 61/6/8
f 59/5/8 55/4/8 57/6/8
f 75/5/34 71/4/34 73/6/34
f 73/6/34 71/4/34 77/6/34
f 71/4/34 70/4/34 77/6/34
f 77/6/34 70/4/34 64/3/34
f 70/4/34 66/5/34 64/3/34
f 65/3/34 64/3/34 66/5/34
f 67/5/2 68/4/2 63/3/2
f 62/3/2 63/3/2 68/4/2
f 76/6/2 62/3/2 68/4/2
f 68/4/2 69/4/2 76/6/2
f 72/6/2 76/6/2 69/4/2
f 74/5/2 72/6/2 69/4/2
f 70/4/35 68/4/36 66/5/37
f 67/5/38 66/5/37 68/4/36
f 71/4/39 75/5/40 69/4/41
f 74/5/42 69/4/41 75/5/40
f 75/5/40 73/6/43 74/5/42
f 72/6/43 74/5/42 73/6/43
f 71/4/39 69/4/41 70/4/35
f 68/4/36 70/4/35 69/4/41
f 67/5/38 63/3/44 66/5/37
f 65/3/44 66/5/37 63/3/44
f 65/3/1 63/3/1 64/3/1
f 62/3/1 64/3/1 63/3/1
f 78/3/22 80/3/22 79/3/22
f 81/3/22 79/3/22 80/3/22
f 82/3/22 79/3/22 81/3/22
f 83/3/22 82/3/22 81/3/22
f 84/3/22 82/3/22 83/3/22
f 85/3/22 84/3/22 83/3/22
f 86/3/22 85/3/22 83/3/22
f 87/3/22 85/3/22 86/3/22
f 12/7/1 88/7/1 20/7/1
f 19/7/1 20/7/1 88/7/1
f 89/7/1 19/7/1 88/7/1
f 18/7/1 19/7/1 89/7/1
f 90/7/1 18/7/1 89/7/1
f 91/7/1 18/7/1 90/7/1
f 17/7/1 18/7/1 91/7/1
f 92/7/1 17/7/1 91/7/1
f 79/3/2 88/7/2 78/3/2
f 12/7/2 78/3/2 88/7/2
f 79/3/3 82/3/4 88/7/3
f 89/7/4 88/7/3 82/3/4
f 82/3/4 84/3/5 89/7/4
f 90/7/5 89/7/4 84/3/5
f 85/3/6 91/7/6 84/3/5
f 90/7/5 84/3/5 91/7/6
f 87/3/7 92/7/7 85/3/6
f 91/7/6 85/3/6 92/7/7
f 87/3/8 86/3/8 92/7/8
f 17/7/8 92/7/8 86/3/8
f 83/3/9 18/7/9 86/3/10
f 17/7/10 86/3/10 18/7/9
f 81/3/11 19/7/11 83/3/9
f 18/7/9 83/3/9 19/7/11
f 20/7/12 19/7/11 80/3/12
f 81/3/11 80/3/12 19/7/11
f 12/7/13 20/7/12 78/3/13
f 80/3/12 78/3/13 20/7/12
f 93/7/45 95/7/46 94/3/45
f 96/3/46 94/3/45 95/7/46
f 97/3/47 99/7/48 98/3/5
f 100/7/5 98/3/5 99/7/48
f 98/3/5 100/7/5 101/3/49
f 102/7/50 101/3/49 100/7/5
f 103/3/51 105/3/52 104/7/51
f 106/7/52 104/7/51 105/3/52
f 97/3/47 103/3/51 99/7/48
f 104/7/51 99/7/48 103/3/51
f 102/7/50 93/7/45 101/3/49
f 94/3/45 101/3/49 93/7/45
f 95/7/1 93/7/1 106/7/1
f 102/7/1 106/7/1 93/7/1
f 100/7/1 106/7/1 102/7/1
f 99/7/1 106/7/1 100/7/1
f 104/7/1 106/7/1 99/7/1
f 107/8/10 109/9/10 108/8/10
f 110/9/10 108/8/10 109/9/10
f 111/10/10 110/9/10 109/9/10
f 112/10/10 110/9/10 111/10/10
f 113/11/10 112/10/10 111/10/10
f 114/11/10 112/10/10 113/11/10
f 114/11/53 115/11/53 112/10/54
f 116/10/54 112/10/54 115/11/53
f 107/8/55 108/8/56 117/8/55
f 118/8/56 117/8/55 108/8/56
f 119/10/57 111/10/57 120/9/58
f 109/9/58 120/9/58 111/10/57
f 118/8/7 121/9/7 117/8/7
f 120/9/7 117/8/7 121/9/7
f 116/10/7 120/9/7 121/9/7
f 119/10/7 120/9/7 116/10/7
f 115/11/7 119/10/7 116/10/7
f 122/11/7 119/10/7 115/11/7
f 121/9/59 110/9/59 116/10/54
f 112/10/54 116/10/54 110/9/59
f 109/9/58 107/8/55 120/9/58
f 117/8/55 120/9/58 107/8/55
f 111/10/57 119/10/57 113/11/60
f 122/11/60 113/11/60 119/10/57
f 113/11/60 122/11/60 114/11/53
f 115/11/53 114/11/53 122/11/60
f 108/8/56 110/9/59 118/8/56
f 121/9/59 118/8/56 110/9/59
f 123/12/55 125/12/56 124/12/55
f 126/12/56 124/12/55 125/12/56
f 127/13/57 129/13/57 128/14/60
f 130/14/60 128/14/60 129/13/57
f 126/12/7 131/15/7 124/12/7
f 132/15/7 124/12/7 131/15/7
f 133/13/7 132/15/7 131/15/7
f 129/13/7 132/15/7 133/13/7
f 134/14/7 129/13/7 133/13/7
f 130/14/7 129/13/7 134/14/7
f 129/13/57 127/13/57 132/15/58
f 135/15/58 132/15/58 127/13/57
f 128/14/60 130/14/60 136/14/53
f 134/14/53 136/14/53 130/14/60
f 131/15/59 137/15/59 133/13/54
f 138/13/54 133/13/54 137/15/59
f 136/14/53 134/14/53 138/13/54
f 133/13/54 138/13/54 134/14/53
f 135/15/58 123/12/55 132/15/58
f 124/12/55 132/15/58 123/12/55
f 123/12/10 135/15/10 125/12/10
f 137/15/10 125/12/10 135/15/10
f 127/13/10 137/15/10 135/15/10
f 138/13/10 137/15/10 127/13/10
f 128/14/10 138/13/10 127/13/10
f 136/14/10 138/13/10 128/14/10
f 125/12/56 137/15/59 126/12/56
f 131/15/59 126/12/56 137/15/59
f 139/16/61 141/16/61 140/16/62
f 142/16/62 140/16/62 141/16/61
f 143/17/63 145/17/64 144/17/63
f 146/17/64 144/17/63 145/17/64
f 147/18/65 143/17/63 148/18/65
f 144/17/63 148/18/65 143/17/63
f 145/17/64 149/18/66 146/17/64
f 150/18/66 146/17/64 149/18/66
f 150/18/66 149/18/66 151/19/67
f 152/19/67 151/19/67 149/18/66
f 146/17/68 150/18/68 144/17/68
f 148/18/68 144/17/68 150/18/68
f 151/19/68 148/18/68 150/18/68
f 153/19/68 148/18/68 151/19/68
f 142/16/68 153/19/68 151/19/68
f 141/16/68 153/19/68 142/16/68
f 140/16/62 142/16/62 152/19/67
f 151/19/67 152/19/67 142/16/62
f 153/19/69 154/19/69 148/18/65
f 147/18/65 148/18/65 154/19/69
f 154/19/69 153/19/69 139/16/61
f 141/16/61 139/16/61 153/19/69
f 143/17/70 147/18/70 145/17/70
f 149/18/70 145/17/70 147/18/70
f 154/19/70 149/18/70 147/18/70
f 152/19/70 149/18/70 154/19/70
f 139/16/70 152/19/70 154/19/70
f 140/16/70 152/19/70 139/16/70
f 155/20/71 157/20/71 156/21/72
f 158/21/72 156/21/72 157/20/71
f 159/20/73 160/20/73 155/20/71
f 157/20/71 155/20/71 160/20/73
f 161/22/74 163/21/75 162/22/74
f 164/21/75 162/22/74 163/21/75
f 165/22/76 156/21/72 166/22/76
f 158/21/72 166/22/76 156/21/72
f 161/22/3 167/23/3 163/21/3
f 160/20/3 163/21/3 167/23/3
f 168/23/3 160/20/3 167/23/3
f 157/20/3 160/20/3 168/23/3
f 166/22/3 157/20/3 168/23/3
f 158/21/3 157/20/3 166/22/3
f 162/22/74 169/23/77 161/22/74
f 167/23/77 161/22/74 169/23/77
f 164/21/75 163/21/75 159/20/73
f 160/20/73 159/20/73 163/21/75
f 164/21/13 159/20/13 162/22/13
f 169/23/13 162/22/13 159/20/13
f 155/20/13 169/23/13 159/20/13
f 170/23/13 169/23/13 155/20/13
f 156/21/13 170/23/13 155/20/13
f 165/22/13 170/23/13 156/21/13
f 170/23/78 165/22/76 168/23/78
f 166/22/76 168/23/78 165/22/76
f 169/23/77 170/23/78 167/23/77
f 168/23/78 167/23/77 170/23/78
f 171/4/8 173/4/8 172/3/8
f 174/3/8 172/3/8 173/4/8
f 174/3/2 173/4/2 175/3/2
f 176/4/2 175/3/2 173/4/2
f 172/3/20 177/3/19 171/4/20
f 178/4/19 171/4/20 177/3/19
f 179/3/15 175/3/16 180/4/17
f 176/4/16 180/4/18 175/3/16
f 171/4/1 178/4/1 173/4/1
f 176/4/1 173/4/1 178/4/1
f 180/4/1 176/4/1 178/4/1
f 179/3/15 180/4/17 177/3/19
f 178/4/19 177/3/19 180/4/17
f 181/3/2 183/7/2 182/3/2
f 184/7/2 182/3/2 183/7/2
f 185/7/8 183/7/8 186/3/8
f 181/3/8 186/3/8 183/7/8
f 185/7/1 187/7/1 183/7/1
f 184/7/1 183/7/1 187/7/1
f 188/7/1 184/7/1 187/7/1
f 181/3/22 182/3/22 186/3/22
f 189/3/22 186/3/22 182/3/22
f 190/3/22 189/3/22 182/3/22
f 190/3/15 182/3/16 188/7/15
f 184/7/16 188/7/15 182/3/16
f 190/3/15 188/7/15 189/3/19
f 187/7/19 189/3/19 188/7/15
f 186/3/20 189/3/19 185/7/20
f 187/7/19 185/7/20 189/3/19
f 191/24/22 193/24/22 192/24/22
f 194/24/22 192/24/22 193/24/22
f 195/24/22 194/24/22 193/24/22
f 196/24/22 194/24/22 195/24/22
f 197/24/22 196/24/22 195/24/22
f 198/24/22 196/24/22 197/24/22
f 199/25/1 201/25/1 200/25/1
f 202/25/1 200/25/1 201/25/1
f 203/25/1 200/25/1 202/25/1
f 204/25/1 203/25/1 202/25/1
f 205/25/1 203/25/1 204/25/1
f 206/25/1 205/25/1 204/25/1
f 201/25/79 199/25/80 192/24/79
f 191/24/80 192/24/79 199/25/80
f 194/24/5 202/25/5 192/24/81
f 201/25/81 192/24/81 202/25/5
f 196/24/82 204/25/82 194/24/5
f 202/25/5 194/24/5 204/25/82
f 196/24/83 198/24/84 204/25/83
f 206/25/84 204/25/83 198/24/84
f 198/24/84 197/24/85 206/25/84
f 205/25/85 206/25/84 197/24/85
f 195/24/11 203/25/11 197/24/86
f 205/25/86 197/24/86 203/25/11
f 193/24/87 200/25/87 195/24/11
f 203/25/11 195/24/11 200/25/87
f 199/25/80 200/25/88 191/24/80
f 193/24/88 191/24/80 200/25/88
f 207/25/1 209/25/1 208/25/1
f 210/25/1 208/25/1 209/25/1
f 211/25/1 208/25/1 210/25/1
f 212/25/1 211/25/1 210/25/1
f 213/25/1 212/25/1 210/25/1
f 214/25/1 212/25/1 213/25/1
f 209/25/79 207/25/89 215/24/79
f 216/24/80 215/24/79 207/25/80
f 217/24/5 210/25/5 215/24/81
f 209/25/81 215/24/81 210/25/5
f 218/24/82 213/25/82 217/24/5
f 210/25/5 217/24/5 213/25/82
f 218/24/83 219/24/84 213/25/83
f 214/25/84 213/25/83 219/24/84
f 219/24/84 220/24/85 214/25/84
f 212/25/85 214/25/90 220/24/85
f 221/24/11 211/25/11 220/24/86
f 212/25/86 220/24/86 211/25/11
f 222/24/87 208/25/87 221/24/11
f 211/25/11 221/24/11 208/25/87
f 207/25/80 208/25/88 216/24/80
f 222/24/88 216/24/80 208/25/88
f 223/26/91 225/27/91 224/26/92
f 226/27/92 224/26/92 225/27/91
f 227/27/93 229/26/93 228/27/94
f 230/26/94 228/27/94 229/26/93
f 231/26/95 232/27/95 223/26/91
f 225/27/91 223/26/91 232/27/95
f 233/26/96 235/27/97 234/26/98
f 236/27/98 234/26/98 235/27/97
f 226/27/99 235/27/100 224/26/99
f 233/26/96 224/26/99 235/27/97
f 237/26/101 238/27/101 230/26/102
f 228/27/102 230/26/102 238/27/101
f 234/26/103 236/27/103 237/26/101
f 238/27/101 237/26/101 236/27/103
f 232/27/104 231/26/104 227/27/93
f 229/26/93 227/27/93 231/26/104
