# Blender 5.2.0 LTS
# www.blender.org
mtllib CorridorEndNew.mtl
o corridor-end
v -1.071889 -0.000000 -0.006433
v -1.096889 0.100000 -0.031433
v -1.071889 -0.000000 -0.206433
v -1.096889 0.100000 -0.181433
v -1.246889 0.100000 -0.031433
v -1.246889 0.100000 -0.181433
v -1.271889 -0.000000 -0.206433
v -1.271889 -0.000000 -0.006433
v -1.749570 0.050000 -0.498221
v -1.537438 0.050000 -0.710353
v -1.537438 0.050000 -0.286089
v -1.325306 0.050000 -0.498221
v -1.537438 -0.000000 -0.215378
v -1.254596 -0.000000 -0.498221
v -0.890411 -0.000000 -0.097594
v -0.855055 0.050000 -0.158831
v -1.820281 -0.000000 -0.498221
v -1.537438 -0.000000 -0.781063
v -0.993938 -0.000000 -0.483964
v -0.932701 0.050000 -0.448609
v -1.296844 0.000000 0.432192
v -1.266226 0.050000 0.449870
v -1.245081 0.000000 0.625377
v -1.227403 0.050000 0.594759
v -1.051895 0.000000 0.573613
v -1.082514 0.050000 0.555936
v -1.547955 0.000000 0.714653
v -1.934325 0.000000 0.611126
v -1.583310 0.100000 0.653416
v -1.873088 0.100000 0.575770
v -1.830798 0.000000 0.224755
v -1.795442 0.100000 0.285993
v -1.444427 0.000000 0.328283
v -1.505664 0.100000 0.363638
v -1.103659 0.000000 0.380428
v -1.121337 0.050000 0.411047
v -0.432193 -0.000000 -1.296845
v -0.449870 0.050000 -1.266227
v -0.625378 -0.000000 -1.245082
v -0.594759 0.050000 -1.227404
v -0.573614 -0.000000 -1.051896
v -0.555936 0.050000 -1.082515
v -0.714654 -0.000000 -1.547956
v -0.611126 -0.000000 -1.934326
v -0.653417 0.100000 -1.583312
v -0.575771 0.100000 -1.873089
v -0.224756 -0.000000 -1.830799
v -0.285993 0.100000 -1.795444
v -0.006434 0.000000 1.071888
v -0.031434 0.100000 1.096888
v -0.206434 0.000000 1.071888
v -0.181434 0.100000 1.096888
v -0.031434 0.100000 1.246888
v -0.181434 0.100000 1.246888
v -0.206434 0.000000 1.271888
v -0.006434 0.000000 1.271888
v -0.328284 -0.000000 -1.444428
v -0.363639 0.100000 -1.505666
v -0.380429 -0.000000 -1.103660
v -0.411048 0.050000 -1.121338
v -0.498222 0.050000 1.749570
v -0.710354 0.050000 1.537438
v -0.286090 0.050000 1.537438
v -0.498222 0.050000 1.325305
v -0.215379 0.000000 1.537438
v -0.498222 0.000000 1.254595
v -0.097595 0.000000 0.890410
v -0.158832 0.050000 0.855054
v -0.498222 0.000000 1.820280
v -0.781065 0.000000 1.537438
v -0.483966 0.000000 0.993937
v -0.448610 0.050000 0.932700
v 2.000000 0.200000 -1.399003
v 0.000000 0.200000 -1.199003
v 2.000000 0.900000 -1.399003
v 0.000000 0.900000 -1.199003
v -2.000000 0.900000 -2.000000
v 2.000000 0.900000 -2.000000
v -2.000000 0.900000 -1.399003
v -2.000000 0.200000 -2.000000
v 2.000000 0.200000 -2.000000
v -2.000000 0.200000 -1.399003
v -2.000000 0.200000 1.399003
v -0.000000 0.200000 1.199003
v -2.000000 0.900000 1.399003
v -0.000000 0.900000 1.199003
v 2.000000 0.900000 2.000000
v -2.000000 0.900000 2.000000
v 2.000000 0.900000 1.399003
v 2.000000 0.200000 2.000000
v -2.000000 0.200000 2.000000
v 2.000000 0.200000 1.399003
v -1.399003 0.200000 -2.000000
v -1.199004 0.200000 0.000000
v -1.399003 0.900000 -2.000000
v -1.199004 0.900000 -0.000000
v -2.000002 0.900000 2.000000
v -2.000001 0.900000 -2.000000
v -1.399004 0.900000 2.000000
v -2.000002 0.200000 2.000000
v -2.000001 0.200000 -2.000000
v -1.399004 0.200000 2.000000
v 1.700498 0.900000 -1.570050
v 1.700498 0.900000 -1.470050
v 2.000001 0.900000 -1.600000
v 2.000001 0.900000 -1.500000
v 2.000001 4.100000 -1.500000
v 1.700498 4.100000 -1.470050
v 1.700498 4.150000 -1.520299
v 1.700498 4.150000 -1.940050
v 2.000001 4.150000 -1.550249
v 2.000001 4.150000 -1.950000
v 1.700498 4.050000 -1.990050
v 2.000001 4.050000 -2.000000
v 1.700498 4.100000 -1.990050
v 2.000001 4.100000 -2.000000
v 1.700498 4.050000 -1.570050
v 2.000001 4.050000 -1.600000
v -1.700498 0.900000 -1.570050
v -1.700498 0.900000 -1.470050
v -2.000001 0.900000 -1.600000
v -2.000001 0.900000 -1.500000
v -2.000001 4.100000 -1.500000
v -1.700498 4.100000 -1.470050
v -1.700498 4.150000 -1.520299
v -1.700498 4.150000 -1.940050
v -2.000001 4.150000 -1.550249
v -2.000001 4.150000 -1.950000
v -1.700498 4.050000 -1.990050
v -2.000001 4.050000 -2.000000
v -1.700498 4.100000 -1.990050
v -2.000001 4.100000 -2.000000
v -1.700498 4.050000 -1.570050
v -2.000001 4.050000 -1.600000
v -2.000000 0.200000 -0.998004
v -2.000000 -0.000000 -0.998004
v -2.000000 0.200000 -2.000000
v -2.000000 -0.000000 -2.000000
v 2.000000 -0.000000 -0.998004
v 0.000000 -0.000000 -0.798005
v 2.000000 0.200000 -0.998004
v 0.000000 0.200000 -0.798005
v 2.000000 -0.000000 -2.000000
v 2.000000 0.200000 -2.000000
v 2.000000 0.900000 -1.600000
v 0.000000 0.900000 -1.400000
v 2.000000 4.050000 -1.600001
v 0.000000 4.050000 -1.400000
v -2.000000 4.050000 -1.600001
v -2.000000 0.900000 -1.600000
v -2.000000 4.050000 -2.000000
v -2.000000 0.900000 -2.000000
v 2.000000 0.900000 -2.000000
v 2.000000 4.050000 -2.000000
v -0.814738 1.256208 -1.421501
v -0.293182 1.256208 -1.375083
v -0.807972 1.256208 -1.481721
v -0.286415 1.256208 -1.435302
v -0.814738 1.664208 -1.421501
v -0.807972 1.664208 -1.481721
v -0.293182 1.664208 -1.375083
v -0.286415 1.664208 -1.435302
v -0.882401 1.596208 -1.427523
v -0.882401 1.324208 -1.427523
v -0.875634 1.596208 -1.487743
v -0.875634 1.324208 -1.487743
v -0.225519 1.324208 -1.369061
v -0.225519 1.596208 -1.369061
v -0.218753 1.324208 -1.429281
v -0.218753 1.596208 -1.429281
v -1.442332 2.103709 -1.493984
v -1.058834 2.103709 -1.455634
v -1.437357 2.103709 -1.543736
v -1.053859 2.103709 -1.505386
v -1.442332 2.403709 -1.493984
v -1.437357 2.403709 -1.543736
v -1.058834 2.403709 -1.455634
v -1.053859 2.403709 -1.505386
v -1.492084 2.353709 -1.498959
v -1.487108 2.353709 -1.548711
v -1.492084 2.153709 -1.498959
v -1.487108 2.153709 -1.548711
v -1.009082 2.153709 -1.450659
v -1.009082 2.353709 -1.450659
v -1.004107 2.153709 -1.500411
v -1.004107 2.353709 -1.500411
v 0.820179 3.439552 -1.482019
v 1.203677 3.439552 -1.520368
v 0.825155 3.439552 -1.432267
v 1.208652 3.439552 -1.470616
v 0.820179 3.139552 -1.482019
v 0.825155 3.139552 -1.432267
v 1.203677 3.139552 -1.520368
v 1.208652 3.139552 -1.470616
v 0.770428 3.389552 -1.477044
v 0.775403 3.389552 -1.427292
v 1.253429 3.389552 -1.525344
v 1.258404 3.389552 -1.475592
v 0.775403 3.189552 -1.427292
v 0.770428 3.189552 -1.477044
v 1.253429 3.189552 -1.525344
v 1.258404 3.189552 -1.475592
v -1.700498 0.900000 1.570049
v -1.700498 0.900000 1.470049
v -2.000001 0.900000 1.600000
v -2.000001 0.900000 1.500000
v -2.000001 4.100000 1.499999
v -1.700498 4.100000 1.470049
v -1.700498 4.150000 1.520298
v -1.700498 4.150000 1.940049
v -2.000001 4.150000 1.550249
v -2.000001 4.150000 1.949999
v -1.700498 4.050000 1.990049
v -2.000001 4.050000 1.999999
v -1.700498 4.100000 1.990049
v -2.000001 4.100000 1.999999
v -1.700498 4.050000 1.570049
v -2.000001 4.050000 1.599999
v 1.700498 0.900000 1.570049
v 1.700498 0.900000 1.470049
v 2.000001 0.900000 1.600000
v 2.000001 0.900000 1.500000
v 2.000001 4.100000 1.499999
v 1.700498 4.100000 1.470049
v 1.700498 4.150000 1.520298
v 1.700498 4.150000 1.940049
v 2.000001 4.150000 1.550249
v 2.000001 4.150000 1.949999
v 1.700498 4.050000 1.990049
v 2.000001 4.050000 1.999999
v 1.700498 4.100000 1.990049
v 2.000001 4.100000 1.999999
v 1.700498 4.050000 1.570049
v 2.000001 4.050000 1.599999
v 2.000000 0.200000 0.998004
v 2.000000 0.000000 0.998004
v 2.000000 0.200000 2.000000
v 2.000000 0.000000 2.000000
v -2.000000 0.000000 0.998004
v -0.000000 0.000000 0.798005
v -2.000000 0.200000 0.998004
v -0.000000 0.200000 0.798005
v -2.000000 0.000000 2.000000
v -2.000000 0.200000 2.000000
v -2.000000 0.900000 1.600000
v -0.000000 0.900000 1.400000
v -2.000000 4.050000 1.600000
v -0.000000 4.050000 1.400000
v 2.000000 4.050000 1.600000
v 2.000000 0.900000 1.600000
v 2.000000 4.050000 2.000000
v 2.000000 0.900000 2.000000
v -2.000000 0.900000 2.000000
v -2.000000 4.050000 2.000000
v 0.814738 1.256209 1.421501
v 0.293182 1.256209 1.375083
v 0.807972 1.256209 1.481721
v 0.286415 1.256209 1.435302
v 0.814738 1.664209 1.421501
v 0.807972 1.664209 1.481721
v 0.293182 1.664209 1.375083
v 0.286415 1.664209 1.435302
v 0.882401 1.596209 1.427523
v 0.882401 1.324209 1.427523
v 0.875634 1.596209 1.487743
v 0.875634 1.324209 1.487743
v 0.225519 1.324209 1.369061
v 0.225519 1.596209 1.369061
v 0.218753 1.324209 1.429280
v 0.218753 1.596209 1.429280
v 1.442332 2.103709 1.493984
v 1.058834 2.103709 1.455634
v 1.437357 2.103709 1.543736
v 1.053859 2.103709 1.505386
v 1.442332 2.403709 1.493984
v 1.437357 2.403709 1.543736
v 1.058834 2.403709 1.455634
v 1.053859 2.403709 1.505386
v 1.492084 2.353709 1.498959
v 1.487108 2.353709 1.548711
v 1.492084 2.153709 1.498959
v 1.487108 2.153709 1.548711
v 1.009082 2.153709 1.450659
v 1.009082 2.353709 1.450659
v 1.004107 2.153709 1.500411
v 1.004107 2.353709 1.500411
v -0.820179 3.439552 1.482018
v -1.203677 3.439552 1.520368
v -0.825155 3.439552 1.432266
v -1.208652 3.439552 1.470616
v -0.820179 3.139552 1.482018
v -0.825155 3.139552 1.432266
v -1.203677 3.139552 1.520368
v -1.208652 3.139552 1.470616
v -0.770428 3.389552 1.477043
v -0.775403 3.389552 1.427291
v -1.253429 3.389552 1.525343
v -1.258404 3.389552 1.475591
v -0.775403 3.189552 1.427291
v -0.770428 3.189552 1.477043
v -1.253429 3.189552 1.525343
v -1.258404 3.189552 1.475591
v -1.570047 0.900000 -1.700496
v -1.470047 0.900000 -1.700496
v -1.599998 0.900000 -2.000000
v -1.499998 0.900000 -2.000000
v -1.499998 4.100000 -2.000000
v -1.470047 4.100000 -1.700497
v -1.520297 4.150000 -1.700497
v -1.940047 4.150000 -1.700497
v -1.550247 4.150000 -2.000000
v -1.949998 4.150000 -2.000000
v -1.990047 4.050000 -1.700497
v -1.999998 4.050000 -2.000000
v -1.990047 4.100000 -1.700497
v -1.999998 4.100000 -2.000000
v -1.570047 4.050000 -1.700497
v -1.599998 4.050000 -2.000000
v -1.570051 0.900000 1.700497
v -1.470051 0.900000 1.700497
v -1.600002 0.900000 2.000000
v -1.500002 0.900000 2.000000
v -1.500002 4.100000 2.000000
v -1.470051 4.100000 1.700496
v -1.520301 4.150000 1.700496
v -1.940051 4.150000 1.700496
v -1.550251 4.150000 2.000000
v -1.950002 4.150000 2.000000
v -1.990051 4.050000 1.700496
v -2.000002 4.050000 2.000000
v -1.990051 4.100000 1.700496
v -2.000002 4.100000 2.000000
v -1.570051 4.050000 1.700496
v -1.600002 4.050000 2.000000
v -0.998005 0.200000 2.000000
v -0.998005 0.000000 2.000000
v -2.000000 0.200000 2.000000
v -2.000000 0.000000 2.000000
v -0.998004 -0.000000 -2.000000
v -0.798005 0.000000 0.000000
v -0.998004 0.200000 -2.000000
v -0.798005 0.200000 0.000000
v -1.999999 -0.000000 -2.000000
v -1.999999 0.200000 -2.000000
v -1.599990 0.900000 -1.999997
v -1.399991 0.900000 0.000003
v -1.599990 4.050000 -1.999998
v -1.399991 4.050000 0.000003
v -1.599991 4.050000 2.000003
v -1.599991 0.900000 2.000003
v -1.999991 4.050000 2.000003
v -1.999991 0.900000 2.000003
v -1.999990 0.900000 -1.999997
v -1.999990 4.050000 -1.999998
v -1.421494 1.256209 0.814743
v -1.375075 1.256209 0.293186
v -1.481713 1.256209 0.807977
v -1.435295 1.256209 0.286420
v -1.421494 1.664209 0.814743
v -1.481713 1.664209 0.807977
v -1.375075 1.664209 0.293186
v -1.435295 1.664209 0.286420
v -1.427516 1.596209 0.882405
v -1.427516 1.324209 0.882405
v -1.487735 1.596209 0.875639
v -1.487735 1.324209 0.875639
v -1.369053 1.324208 0.225524
v -1.369053 1.596208 0.225524
v -1.429273 1.324208 0.218757
v -1.429273 1.596208 0.218757
v -1.493973 2.103709 1.442333
v -1.455624 2.103709 1.058835
v -1.543725 2.103709 1.437357
v -1.505376 2.103709 1.053860
v -1.493973 2.403709 1.442333
v -1.543725 2.403709 1.437357
v -1.455624 2.403709 1.058835
v -1.505376 2.403709 1.053860
v -1.498948 2.353709 1.492085
v -1.548701 2.353709 1.487109
v -1.498948 2.153709 1.492085
v -1.548701 2.153709 1.487109
v -1.450648 2.153709 1.009083
v -1.450648 2.353709 1.009083
v -1.500400 2.153709 1.004108
v -1.500400 2.353709 1.004108
v -1.482008 3.439552 -0.820178
v -1.520358 3.439552 -1.203675
v -1.432256 3.439552 -0.825153
v -1.470606 3.439552 -1.208650
v -1.482008 3.139552 -0.820178
v -1.432256 3.139552 -0.825153
v -1.520358 3.139552 -1.203675
v -1.470606 3.139552 -1.208650
v -1.477033 3.389552 -0.770426
v -1.427281 3.389552 -0.775401
v -1.525333 3.389552 -1.253427
v -1.475581 3.389552 -1.258402
v -1.427281 3.189552 -0.775401
v -1.477033 3.189552 -0.770426
v -1.525333 3.189552 -1.253427
v -1.475581 3.189552 -1.258402
vn 0.6667 0.3333 0.6667
vn 0.6667 0.3333 -0.6667
vn 0.5034 0.7023 0.5034
vn 0.5034 0.7023 -0.5034
vn -0.5034 0.7023 0.5034
vn -0.5034 0.7023 -0.5034
vn -0.6667 0.3333 -0.6667
vn -0.6667 0.3333 0.6667
vn -0.4245 0.9054 -0.0000
vn -0.0000 0.9054 0.4245
vn -0.0000 0.9054 -0.4245
vn 0.4245 0.9054 -0.0000
vn -0.0000 0.8165 0.5774
vn 0.5774 0.8165 -0.0000
vn -0.5773 0.8165 -0.0000
vn -0.0000 0.8165 -0.5773
vn -0.5000 0.8165 -0.2886
vn -0.2887 0.8165 0.5000
vn -0.3677 0.9054 -0.2123
vn -0.2122 0.9054 0.3676
vn -0.7071 0.5774 -0.4082
vn -0.4082 0.5773 0.7071
vn -0.5203 0.7994 -0.3004
vn -0.3004 0.7994 0.5203
vn 0.7071 0.5774 0.4082
vn 0.5203 0.7994 0.3004
vn 0.4083 0.5774 0.7071
vn 0.3004 0.7994 0.5202
vn -0.7071 0.5774 0.4082
vn -0.5203 0.7994 0.3004
vn -0.4082 0.5774 -0.7071
vn -0.3004 0.7994 -0.5203
vn 0.7071 0.5773 -0.4083
vn 0.5203 0.7994 -0.3004
vn 0.4082 0.5773 -0.7071
vn 0.3004 0.7994 -0.5203
vn -0.7071 0.5773 -0.4082
vn -0.4082 0.5774 0.7071
vn -0.7071 0.5774 0.4083
vn -0.5202 0.7994 0.3004
vn 0.7071 0.5773 -0.4082
vn 0.4083 0.5773 0.7071
vn 0.3004 0.7994 0.5203
vn -0.0000 0.8165 -0.5774
vn -0.0000 0.8165 0.5773
vn -0.5774 0.8165 -0.0000
vn -0.2886 0.8165 0.5000
vn 0.5000 0.8165 0.2887
vn -0.2123 0.9054 0.3676
vn 0.3676 0.9054 0.2124
vn 0.0995 -0.0000 0.9950
vn -0.0000 -0.0000 1.0000
vn -0.0000 1.0000 -0.0000
vn -0.0000 -0.0000 -1.0000
vn -0.0995 -0.0000 0.9950
vn -1.0000 -0.0000 -0.0000
vn 1.0000 -0.0000 -0.0000
vn -0.0995 -0.0000 -0.9950
vn 0.0995 -0.0000 -0.9950
vn 0.9950 -0.0000 -0.0995
vn 0.9950 -0.0000 0.0995
vn -0.0000 -1.0000 -0.0000
vn 0.0916 0.3911 0.9158
vn 0.0923 0.3739 0.9229
vn 0.0402 0.9150 0.4015
vn 0.0360 0.9322 0.3603
vn -0.0125 0.9267 -0.3757
vn -0.0129 0.9209 -0.3895
vn -0.0332 -0.0000 -0.9994
vn -0.0306 0.3854 -0.9222
vn -0.0307 0.3797 -0.9246
vn 0.0360 -0.9322 -0.3603
vn 0.0402 -0.9150 -0.4015
vn 0.0916 -0.3911 -0.9158
vn 0.0923 -0.3739 -0.9229
vn -0.0129 -0.9209 0.3895
vn -0.0307 -0.3797 0.9246
vn -0.0125 -0.9267 0.3757
vn -0.0306 -0.3854 0.9222
vn -0.0332 -0.0000 0.9994
vn -0.3854 -0.9217 -0.0433
vn -0.3758 -0.9257 -0.0422
vn 0.3758 -0.9257 0.0422
vn 0.3854 -0.9217 0.0433
vn -0.3854 0.9217 -0.0433
vn 0.3758 0.9257 0.0422
vn -0.3758 0.9257 -0.0422
vn 0.3854 0.9217 0.0433
vn -0.9190 0.3804 -0.1033
vn -0.9174 0.3844 -0.1031
vn -0.9190 -0.3804 -0.1033
vn -0.9174 -0.3844 -0.1031
vn 0.9174 -0.3844 0.1031
vn 0.9190 -0.3804 0.1033
vn 0.9174 0.3844 0.1031
vn 0.9190 0.3804 0.1033
vn -0.0886 -0.0000 0.9961
vn 0.0886 -0.0000 -0.9961
vn 0.0887 -0.0000 -0.9961
vn -0.3808 -0.9239 -0.0381
vn 0.3808 -0.9239 0.0381
vn -0.3808 0.9239 -0.0381
vn 0.3808 0.9239 0.0381
vn -0.9193 0.3827 -0.0919
vn -0.9193 -0.3827 -0.0919
vn 0.9193 -0.3827 0.0919
vn 0.9193 0.3827 0.0919
vn -0.3808 0.9239 0.0381
vn 0.3808 0.9239 -0.0381
vn -0.3808 -0.9239 0.0381
vn 0.3808 -0.9239 -0.0381
vn -0.9193 0.3827 0.0919
vn 0.9193 0.3827 -0.0919
vn -0.9193 -0.3827 0.0919
vn 0.9193 -0.3827 -0.0919
vn -0.0916 0.3911 -0.9158
vn -0.0923 0.3739 -0.9229
vn -0.0402 0.9150 -0.4015
vn -0.0360 0.9322 -0.3603
vn 0.0125 0.9267 0.3757
vn 0.0129 0.9209 0.3895
vn 0.0332 -0.0000 0.9994
vn 0.0306 0.3854 0.9222
vn 0.0307 0.3797 0.9246
vn -0.0360 -0.9322 0.3603
vn -0.0402 -0.9150 0.4015
vn -0.0916 -0.3911 0.9158
vn -0.0923 -0.3739 0.9229
vn 0.0129 -0.9209 -0.3895
vn 0.0307 -0.3797 -0.9246
vn 0.0125 -0.9267 -0.3757
vn 0.0306 -0.3854 -0.9222
vn 0.0332 -0.0000 -0.9994
vn -0.0887 -0.0000 0.9961
vn 0.9158 0.3911 -0.0916
vn 0.9229 0.3739 -0.0923
vn 0.4015 0.9150 -0.0401
vn 0.3602 0.9322 -0.0360
vn -0.3757 0.9267 0.0125
vn -0.3895 0.9209 0.0129
vn -0.9994 -0.0000 0.0332
vn -0.9222 0.3854 0.0306
vn -0.9246 0.3797 0.0307
vn -0.3602 -0.9322 -0.0360
vn -0.4015 -0.9150 -0.0401
vn -0.9158 -0.3911 -0.0916
vn -0.9229 -0.3739 -0.0923
vn 0.3895 -0.9209 0.0129
vn 0.9246 -0.3797 0.0307
vn 0.3757 -0.9267 0.0125
vn 0.9222 -0.3854 0.0306
vn 0.9994 -0.0000 0.0332
vn -0.9950 -0.0000 -0.0995
vn -0.0433 -0.9217 0.3854
vn -0.0422 -0.9257 0.3758
vn 0.0422 -0.9257 -0.3758
vn 0.0433 -0.9217 -0.3854
vn -0.0433 0.9217 0.3854
vn 0.0422 0.9257 -0.3758
vn -0.0422 0.9257 0.3758
vn 0.0433 0.9217 -0.3854
vn -0.1033 0.3804 0.9190
vn -0.1031 0.3844 0.9174
vn -0.1033 -0.3804 0.9190
vn -0.1031 -0.3844 0.9174
vn 0.1031 -0.3844 -0.9174
vn 0.1033 -0.3804 -0.9190
vn 0.1031 0.3844 -0.9174
vn 0.1033 0.3804 -0.9190
vn 0.9961 -0.0000 0.0886
vn -0.9961 -0.0000 -0.0886
vn -0.0381 -0.9239 0.3808
vn 0.0381 -0.9239 -0.3808
vn -0.0381 0.9239 0.3808
vn 0.0381 0.9239 -0.3808
vn -0.0919 0.3827 0.9193
vn -0.0919 -0.3827 0.9193
vn 0.0919 -0.3827 -0.9193
vn 0.0919 0.3827 -0.9193
vn 0.0381 0.9239 0.3808
vn -0.0381 0.9239 -0.3808
vn 0.0381 -0.9239 0.3808
vn -0.0381 -0.9239 -0.3808
vn 0.0919 0.3827 0.9193
vn -0.0919 0.3827 -0.9193
vn 0.0919 -0.3827 0.9193
vn -0.9950 -0.0000 0.0995
vn -0.0919 -0.3827 -0.9193
vt 0.468750 0.025000
vt 0.468750 0.105000
vt 0.468750 0.065000
vt 0.093750 0.025000
vt 0.093750 0.225000
vt 0.343750 0.025000
vt 0.343750 0.221923
vt 0.343750 0.225000
vt 0.343750 0.218846
vt 0.343750 0.105000
vt 0.343750 0.077616
vt 0.343750 0.103521
vt 0.343750 0.099204
vt 0.343750 0.081934
vt 0.343750 0.131426
vt 0.343750 0.150474
vt 0.343750 0.147299
vt 0.343750 0.134601
vt 0.343750 0.216241
vt 0.343750 0.197194
vt 0.343750 0.213067
vt 0.343750 0.200368
s 1
usemtl colormap
f 1/1/1 3/1/2 2/2/3
f 4/2/4 2/2/3 3/1/2
f 5/2/5 2/2/3 6/2/6
f 4/2/4 6/2/6 2/2/3
f 7/1/7 6/2/6 3/1/2
f 4/2/4 3/1/2 6/2/6
f 1/1/1 2/2/3 8/1/8
f 5/2/5 8/1/8 2/2/3
f 8/1/8 5/2/5 7/1/7
f 6/2/6 7/1/7 5/2/5
f 9/3/9 11/3/10 10/3/11
f 12/3/12 10/3/11 11/3/10
f 11/3/10 13/1/13 12/3/12
f 14/1/14 12/3/12 13/1/13
f 17/1/15 13/1/13 9/3/9
f 11/3/10 9/3/9 13/1/13
f 10/3/11 12/3/12 18/1/16
f 14/1/14 18/1/16 12/3/12
f 17/1/15 9/3/9 18/1/16
f 10/3/11 18/1/16 9/3/9
f 19/1/17 15/1/18 20/3/19
f 16/3/20 20/3/19 15/1/18
f 21/1/21 23/1/22 22/3/23
f 24/3/24 22/3/23 23/1/22
f 25/1/25 26/3/26 23/1/22
f 24/3/24 23/1/22 26/3/26
f 27/1/27 29/2/28 28/1/29
f 30/2/30 28/1/29 29/2/28
f 31/1/31 28/1/29 32/2/32
f 30/2/30 32/2/32 28/1/29
f 33/1/33 34/2/34 27/1/27
f 29/2/28 27/1/27 34/2/34
f 21/1/21 22/3/23 35/1/35
f 36/3/36 35/1/35 22/3/23
f 31/1/31 32/2/32 33/1/33
f 34/2/34 33/1/33 32/2/32
f 34/2/34 32/2/32 29/2/28
f 30/2/30 29/2/28 32/2/32
f 26/3/26 36/3/36 24/3/24
f 22/3/23 24/3/24 36/3/36
f 35/1/35 36/3/36 25/1/25
f 26/3/26 25/1/25 36/3/36
f 37/1/35 39/1/37 38/3/36
f 40/3/23 38/3/36 39/1/37
f 41/1/38 42/3/24 39/1/37
f 40/3/23 39/1/37 42/3/24
f 43/1/39 45/2/40 44/1/31
f 46/2/32 44/1/31 45/2/40
f 47/1/41 44/1/31 48/2/34
f 46/2/32 48/2/34 44/1/31
f 49/1/2 51/1/7 50/2/4
f 52/2/6 50/2/4 51/1/7
f 53/2/3 50/2/4 54/2/5
f 52/2/6 54/2/5 50/2/4
f 55/1/8 54/2/5 51/1/7
f 52/2/6 51/1/7 54/2/5
f 49/1/2 50/2/4 56/1/1
f 53/2/3 56/1/1 50/2/4
f 56/1/1 53/2/3 55/1/8
f 54/2/5 55/1/8 53/2/3
f 57/1/42 58/2/43 43/1/39
f 45/2/40 43/1/39 58/2/43
f 37/1/35 38/3/36 59/1/25
f 60/3/26 59/1/25 38/3/36
f 47/1/41 48/2/34 57/1/42
f 58/2/43 57/1/42 48/2/34
f 58/2/43 48/2/34 45/2/40
f 46/2/32 45/2/40 48/2/34
f 61/3/10 63/3/12 62/3/9
f 64/3/11 62/3/9 63/3/12
f 42/3/24 60/3/26 40/3/23
f 38/3/36 40/3/23 60/3/26
f 63/3/12 65/1/14 64/3/11
f 66/1/44 64/3/11 65/1/14
f 69/1/45 65/1/14 61/3/10
f 63/3/12 61/3/10 65/1/14
f 62/3/9 64/3/11 70/1/46
f 66/1/44 70/1/46 64/3/11
f 69/1/45 61/3/10 70/1/46
f 62/3/9 70/1/46 61/3/10
f 71/1/47 67/1/48 72/3/49
f 68/3/50 72/3/49 67/1/48
f 59/1/25 60/3/26 41/1/38
f 42/3/24 41/1/38 60/3/26
f 73/4/51 75/5/51 74/4/52
f 76/5/52 74/4/52 75/5/51
f 77/5/53 79/5/53 78/5/53
f 76/5/53 78/5/53 79/5/53
f 75/5/53 78/5/53 76/5/53
f 80/4/54 77/5/54 81/4/54
f 78/5/54 81/4/54 77/5/54
f 74/4/52 76/5/52 82/4/55
f 79/5/55 82/4/55 76/5/52
f 79/5/56 77/5/56 82/4/56
f 80/4/56 82/4/56 77/5/56
f 73/4/57 81/4/57 75/5/57
f 78/5/57 75/5/57 81/4/57
f 83/4/58 85/5/58 84/4/54
f 86/5/54 84/4/54 85/5/58
f 87/5/53 89/5/53 88/5/53
f 86/5/53 88/5/53 89/5/53
f 85/5/53 88/5/53 86/5/53
f 90/4/52 87/5/52 91/4/52
f 88/5/52 91/4/52 87/5/52
f 84/4/54 86/5/54 92/4/59
f 89/5/59 92/4/59 86/5/54
f 89/5/57 87/5/57 92/4/57
f 90/4/57 92/4/57 87/5/57
f 83/4/56 91/4/56 85/5/56
f 88/5/56 85/5/56 91/4/56
f 93/4/60 95/5/60 94/4/57
f 96/5/57 94/4/57 95/5/60
f 97/5/53 99/5/53 98/5/53
f 96/5/53 98/5/53 99/5/53
f 95/5/53 98/5/53 96/5/53
f 100/4/56 97/5/56 101/4/56
f 98/5/56 101/4/56 97/5/56
f 94/4/57 96/5/57 102/4/61
f 99/5/61 102/4/61 96/5/57
f 99/5/52 97/5/52 102/4/52
f 100/4/52 102/4/52 97/5/52
f 93/4/54 101/4/54 95/5/54
f 98/5/54 95/5/54 101/4/54
f 103/6/62 105/6/62 104/6/62
f 106/6/62 104/6/62 105/6/62
f 106/6/51 107/7/63 104/6/51
f 108/7/64 104/6/51 107/7/63
f 109/8/65 111/8/66 110/8/67
f 112/8/68 110/8/67 111/8/66
f 113/9/69 115/7/70 114/9/69
f 116/7/71 114/9/69 115/7/70
f 115/7/70 110/8/67 116/7/71
f 112/8/68 116/7/71 110/8/67
f 108/7/64 107/7/63 109/8/65
f 111/8/66 109/8/65 107/7/63
f 115/7/56 113/9/56 110/8/56
f 113/9/56 117/9/56 110/8/56
f 109/8/56 110/8/56 117/9/56
f 117/9/56 103/6/56 109/8/56
f 103/6/56 104/6/56 109/8/56
f 108/7/56 109/8/56 104/6/56
f 106/6/57 105/6/57 107/7/57
f 111/8/57 107/7/57 105/6/57
f 118/9/57 111/8/57 105/6/57
f 112/8/57 111/8/57 118/9/57
f 114/9/57 112/8/57 118/9/57
f 116/7/57 112/8/57 114/9/57
f 132/7/57 128/8/57 130/9/57
f 130/9/57 128/8/57 134/9/57
f 128/8/57 127/8/57 134/9/57
f 134/9/57 127/8/57 121/6/57
f 127/8/57 123/7/57 121/6/57
f 122/6/57 121/6/57 123/7/57
f 124/7/56 125/8/56 120/6/56
f 119/6/56 120/6/56 125/8/56
f 133/9/56 119/6/56 125/8/56
f 125/8/56 126/8/56 133/9/56
f 129/9/56 133/9/56 126/8/56
f 131/7/56 129/9/56 126/8/56
f 127/8/72 125/8/73 123/7/74
f 124/7/75 123/7/74 125/8/73
f 128/8/76 132/7/77 126/8/78
f 131/7/79 126/8/78 132/7/77
f 132/7/77 130/9/80 131/7/79
f 129/9/80 131/7/79 130/9/80
f 128/8/76 126/8/78 127/8/72
f 125/8/73 127/8/72 126/8/78
f 124/7/75 120/6/59 123/7/74
f 122/6/59 123/7/74 120/6/59
f 122/6/53 120/6/53 121/6/53
f 119/6/53 121/6/53 120/6/53
f 135/10/56 137/10/56 136/6/56
f 138/6/56 136/6/56 137/10/56
f 139/6/51 141/10/51 140/6/52
f 142/10/52 140/6/52 141/10/51
f 138/6/54 137/10/54 143/6/54
f 144/10/54 143/6/54 137/10/54
f 140/6/52 142/10/52 136/6/55
f 135/10/55 136/6/55 142/10/52
f 138/6/62 143/6/62 136/6/62
f 140/6/62 136/6/62 143/6/62
f 139/6/62 140/6/62 143/6/62
f 137/10/53 135/10/53 144/10/53
f 142/10/53 144/10/53 135/10/53
f 141/10/53 144/10/53 142/10/53
f 139/6/57 143/6/57 141/10/57
f 144/10/57 141/10/57 143/6/57
f 145/6/51 147/8/51 146/6/52
f 148/8/52 146/6/52 147/8/51
f 149/8/56 151/8/56 150/6/56
f 152/6/56 150/6/56 151/8/56
f 152/6/54 151/8/54 153/6/54
f 154/8/54 153/6/54 151/8/54
f 146/6/52 148/8/52 150/6/55
f 149/8/55 150/6/55 148/8/52
f 145/6/57 153/6/57 147/8/57
f 154/8/57 147/8/57 153/6/57
f 151/8/53 149/8/53 154/8/53
f 148/8/53 154/8/53 149/8/53
f 147/8/53 154/8/53 148/8/53
f 155/11/81 157/11/82 156/11/83
f 158/11/84 156/11/83 157/11/82
f 159/12/85 161/12/86 160/12/87
f 162/12/88 160/12/87 161/12/86
f 163/13/89 165/13/90 164/14/91
f 166/14/92 164/14/91 165/13/90
f 167/14/93 169/14/94 168/13/95
f 170/13/96 168/13/95 169/14/94
f 163/13/89 159/12/85 165/13/90
f 160/12/87 165/13/90 159/12/85
f 164/14/91 166/14/92 155/11/81
f 157/11/82 155/11/81 166/14/92
f 156/11/97 167/14/97 155/11/97
f 164/14/97 155/11/97 167/14/97
f 168/13/97 164/14/97 167/14/97
f 163/13/97 164/14/97 168/13/97
f 161/12/97 163/13/97 168/13/97
f 159/12/97 163/13/97 161/12/97
f 157/11/98 166/14/98 158/11/98
f 169/14/98 158/11/98 166/14/98
f 165/13/98 169/14/98 166/14/98
f 170/13/98 169/14/98 165/13/98
f 160/12/99 170/13/98 165/13/98
f 162/12/99 170/13/98 160/12/99
f 156/11/83 158/11/84 167/14/93
f 169/14/94 167/14/93 158/11/84
f 161/12/86 168/13/95 162/12/88
f 170/13/96 162/12/88 168/13/95
f 171/15/100 173/15/100 172/15/101
f 174/15/101 172/15/101 173/15/100
f 175/16/102 177/16/103 176/16/102
f 178/16/103 176/16/102 177/16/103
f 179/17/104 175/16/102 180/17/104
f 176/16/102 180/17/104 175/16/102
f 181/18/105 182/18/105 171/15/100
f 173/15/100 171/15/100 182/18/105
f 183/18/106 185/18/106 184/17/107
f 186/17/107 184/17/107 185/18/106
f 179/17/104 180/17/104 181/18/105
f 182/18/105 181/18/105 180/17/104
f 172/15/55 183/18/55 171/15/55
f 181/18/55 171/15/55 183/18/55
f 184/17/55 181/18/55 183/18/55
f 179/17/55 181/18/55 184/17/55
f 177/16/55 179/17/55 184/17/55
f 175/16/55 179/17/55 177/16/55
f 172/15/101 174/15/101 183/18/106
f 185/18/106 183/18/106 174/15/101
f 173/15/59 182/18/59 174/15/59
f 185/18/59 174/15/59 182/18/59
f 180/17/59 185/18/59 182/18/59
f 186/17/59 185/18/59 180/17/59
f 176/16/59 186/17/59 180/17/59
f 178/16/59 186/17/59 176/16/59
f 177/16/103 184/17/107 178/16/103
f 186/17/107 178/16/103 184/17/107
f 187/19/108 189/19/108 188/19/109
f 190/19/109 188/19/109 189/19/108
f 191/20/110 193/20/111 192/20/110
f 194/20/111 192/20/110 193/20/111
f 195/21/112 196/21/112 187/19/108
f 189/19/108 187/19/108 196/21/112
f 188/19/109 190/19/109 197/21/113
f 198/21/113 197/21/113 190/19/109
f 196/21/112 195/21/112 199/22/114
f 200/22/114 199/22/114 195/21/112
f 200/22/114 191/20/110 199/22/114
f 192/20/110 199/22/114 191/20/110
f 191/20/58 200/22/58 193/20/58
f 201/22/58 193/20/58 200/22/58
f 195/21/58 201/22/58 200/22/58
f 197/21/58 201/22/58 195/21/58
f 187/19/58 197/21/58 195/21/58
f 188/19/58 197/21/58 187/19/58
f 194/20/51 202/22/51 192/20/51
f 199/22/51 192/20/51 202/22/51
f 198/21/51 199/22/51 202/22/51
f 196/21/51 199/22/51 198/21/51
f 190/19/51 196/21/51 198/21/51
f 189/19/51 196/21/51 190/19/51
f 193/20/111 201/22/115 194/20/111
f 202/22/115 194/20/111 201/22/115
f 202/22/115 201/22/115 198/21/113
f 197/21/113 198/21/113 201/22/115
f 203/6/62 205/6/62 204/6/62
f 206/6/62 204/6/62 205/6/62
f 206/6/58 207/7/116 204/6/58
f 208/7/117 204/6/58 207/7/116
f 209/8/118 211/8/119 210/8/120
f 212/8/121 210/8/120 211/8/119
f 213/9/122 215/7/123 214/9/122
f 216/7/124 214/9/122 215/7/123
f 215/7/123 210/8/120 216/7/124
f 212/8/121 216/7/124 210/8/120
f 208/7/117 207/7/116 209/8/118
f 211/8/119 209/8/118 207/7/116
f 215/7/57 213/9/57 210/8/57
f 213/9/57 217/9/57 210/8/57
f 209/8/57 210/8/57 217/9/57
f 217/9/57 203/6/57 209/8/57
f 203/6/57 204/6/57 209/8/57
f 208/7/57 209/8/57 204/6/57
f 206/6/56 205/6/56 207/7/56
f 211/8/56 207/7/56 205/6/56
f 218/9/56 211/8/56 205/6/56
f 212/8/56 211/8/56 218/9/56
f 214/9/56 212/8/56 218/9/56
f 216/7/56 212/8/56 214/9/56
f 232/7/56 228/8/56 230/9/56
f 230/9/56 228/8/56 234/9/56
f 228/8/56 227/8/56 234/9/56
f 234/9/56 227/8/56 221/6/56
f 227/8/56 223/7/56 221/6/56
f 222/6/56 221/6/56 223/7/56
f 224/7/57 225/8/57 220/6/57
f 219/6/57 220/6/57 225/8/57
f 233/9/57 219/6/57 225/8/57
f 225/8/57 226/8/57 233/9/57
f 229/9/57 233/9/57 226/8/57
f 231/7/57 229/9/57 226/8/57
f 227/8/125 225/8/126 223/7/127
f 224/7/128 223/7/127 225/8/126
f 228/8/129 232/7/130 226/8/131
f 231/7/132 226/8/131 232/7/130
f 232/7/130 230/9/133 231/7/132
f 229/9/133 231/7/132 230/9/133
f 228/8/129 226/8/131 227/8/125
f 225/8/126 227/8/125 226/8/131
f 224/7/128 220/6/55 223/7/127
f 222/6/55 223/7/127 220/6/55
f 222/6/53 220/6/53 221/6/53
f 219/6/53 221/6/53 220/6/53
f 235/10/57 237/10/57 236/6/57
f 238/6/57 236/6/57 237/10/57
f 239/6/58 241/10/58 240/6/54
f 242/10/54 240/6/54 241/10/58
f 238/6/52 237/10/52 243/6/52
f 244/10/52 243/6/52 237/10/52
f 240/6/54 242/10/54 236/6/59
f 235/10/59 236/6/59 242/10/54
f 238/6/62 243/6/62 236/6/62
f 240/6/62 236/6/62 243/6/62
f 239/6/62 240/6/62 243/6/62
f 237/10/53 235/10/53 244/10/53
f 242/10/53 244/10/53 235/10/53
f 241/10/53 244/10/53 242/10/53
f 239/6/56 243/6/56 241/10/56
f 244/10/56 241/10/56 243/6/56
f 245/6/58 247/8/58 246/6/54
f 248/8/54 246/6/54 247/8/58
f 249/8/57 251/8/57 250/6/57
f 252/6/57 250/6/57 251/8/57
f 252/6/52 251/8/52 253/6/52
f 254/8/52 253/6/52 251/8/52
f 246/6/54 248/8/54 250/6/59
f 249/8/59 250/6/59 248/8/54
f 245/6/56 253/6/56 247/8/56
f 254/8/56 247/8/56 253/6/56
f 251/8/53 249/8/53 254/8/53
f 248/8/53 254/8/53 249/8/53
f 247/8/53 254/8/53 248/8/53
f 255/11/84 257/11/83 256/11/82
f 258/11/81 256/11/82 257/11/83
f 259/12/88 261/12/87 260/12/86
f 262/12/85 260/12/86 261/12/87
f 263/13/96 265/13/95 264/14/94
f 266/14/93 264/14/94 265/13/95
f 267/14/92 269/14/91 268/13/90
f 270/13/89 268/13/90 269/14/91
f 263/13/96 259/12/88 265/13/95
f 260/12/86 265/13/95 259/12/88
f 264/14/94 266/14/93 255/11/84
f 257/11/83 255/11/84 266/14/93
f 256/11/98 267/14/98 255/11/98
f 264/14/98 255/11/98 267/14/98
f 268/13/98 264/14/98 267/14/98
f 263/13/98 264/14/98 268/13/98
f 261/12/98 263/13/98 268/13/98
f 259/12/98 263/13/98 261/12/98
f 257/11/97 266/14/97 258/11/97
f 269/14/97 258/11/97 266/14/97
f 265/13/97 269/14/97 266/14/97
f 270/13/97 269/14/97 265/13/97
f 260/12/134 270/13/97 265/13/97
f 262/12/134 270/13/97 260/12/134
f 256/11/82 258/11/81 267/14/92
f 269/14/91 267/14/92 258/11/81
f 261/12/87 268/13/90 262/12/85
f 270/13/89 262/12/85 268/13/90
f 271/15/101 273/15/101 272/15/100
f 274/15/100 272/15/100 273/15/101
f 275/16/103 277/16/102 276/16/103
f 278/16/102 276/16/103 277/16/102
f 279/17/107 275/16/103 280/17/107
f 276/16/103 280/17/107 275/16/103
f 281/18/106 282/18/106 271/15/101
f 273/15/101 271/15/101 282/18/106
f 283/18/105 285/18/105 284/17/104
f 286/17/104 284/17/104 285/18/105
f 279/17/107 280/17/107 281/18/106
f 282/18/106 281/18/106 280/17/107
f 272/15/59 283/18/59 271/15/59
f 281/18/59 271/15/59 283/18/59
f 284/17/59 281/18/59 283/18/59
f 279/17/59 281/18/59 284/17/59
f 277/16/59 279/17/59 284/17/59
f 275/16/59 279/17/59 277/16/59
f 272/15/100 274/15/100 283/18/105
f 285/18/105 283/18/105 274/15/100
f 273/15/55 282/18/55 274/15/55
f 285/18/55 274/15/55 282/18/55
f 280/17/55 285/18/55 282/18/55
f 286/17/55 285/18/55 280/17/55
f 276/16/55 286/17/55 280/17/55
f 278/16/55 286/17/55 276/16/55
f 277/16/102 284/17/104 278/16/102
f 286/17/104 278/16/102 284/17/104
f 287/19/109 289/19/109 288/19/108
f 290/19/108 288/19/108 289/19/109
f 291/20/111 293/20/110 292/20/111
f 294/20/110 292/20/111 293/20/110
f 295/21/113 296/21/113 287/19/109
f 289/19/109 287/19/109 296/21/113
f 288/19/108 290/19/108 297/21/112
f 298/21/112 297/21/112 290/19/108
f 296/21/113 295/21/113 299/22/115
f 300/22/115 299/22/115 295/21/113
f 300/22/115 291/20/111 299/22/115
f 292/20/111 299/22/115 291/20/111
f 291/20/51 300/22/51 293/20/51
f 301/22/51 293/20/51 300/22/51
f 295/21/51 301/22/51 300/22/51
f 297/21/51 301/22/51 295/21/51
f 287/19/51 297/21/51 295/21/51
f 288/19/51 297/21/51 287/19/51
f 294/20/58 302/22/58 292/20/58
f 299/22/58 292/20/58 302/22/58
f 298/21/58 299/22/58 302/22/58
f 296/21/58 299/22/58 298/21/58
f 290/19/58 296/21/58 298/21/58
f 289/19/58 296/21/58 290/19/58
f 293/20/110 301/22/114 294/20/110
f 302/22/114 294/20/110 301/22/114
f 302/22/114 301/22/114 298/21/112
f 297/21/112 298/21/112 301/22/114
f 303/6/62 305/6/62 304/6/62
f 306/6/62 304/6/62 305/6/62
f 306/6/60 307/7/135 304/6/60
f 308/7/136 304/6/60 307/7/135
f 309/8/137 311/8/138 310/8/139
f 312/8/140 310/8/139 311/8/138
f 313/9/141 315/7/142 314/9/141
f 316/7/143 314/9/141 315/7/142
f 315/7/142 310/8/139 316/7/143
f 312/8/140 316/7/143 310/8/139
f 308/7/136 307/7/135 309/8/137
f 311/8/138 309/8/137 307/7/135
f 315/7/52 313/9/52 310/8/52
f 313/9/52 317/9/52 310/8/52
f 309/8/52 310/8/52 317/9/52
f 317/9/52 303/6/52 309/8/52
f 303/6/52 304/6/52 309/8/52
f 308/7/52 309/8/52 304/6/52
f 306/6/54 305/6/54 307/7/54
f 311/8/54 307/7/54 305/6/54
f 318/9/54 311/8/54 305/6/54
f 312/8/54 311/8/54 318/9/54
f 314/9/54 312/8/54 318/9/54
f 316/7/54 312/8/54 314/9/54
f 332/7/54 328/8/54 330/9/54
f 330/9/54 328/8/54 334/9/54
f 328/8/54 327/8/54 334/9/54
f 334/9/54 327/8/54 321/6/54
f 327/8/54 323/7/54 321/6/54
f 322/6/54 321/6/54 323/7/54
f 324/7/52 325/8/52 320/6/52
f 319/6/52 320/6/52 325/8/52
f 333/9/52 319/6/52 325/8/52
f 325/8/52 326/8/52 333/9/52
f 329/9/52 333/9/52 326/8/52
f 331/7/52 329/9/52 326/8/52
f 327/8/144 325/8/145 323/7/146
f 324/7/147 323/7/146 325/8/145
f 328/8/148 332/7/149 326/8/150
f 331/7/151 326/8/150 332/7/149
f 332/7/149 330/9/152 331/7/151
f 329/9/152 331/7/151 330/9/152
f 328/8/148 326/8/150 327/8/144
f 325/8/145 327/8/144 326/8/150
f 324/7/147 320/6/153 323/7/146
f 322/6/153 323/7/146 320/6/153
f 322/6/53 320/6/53 321/6/53
f 319/6/53 321/6/53 320/6/53
f 335/10/52 337/10/52 336/6/52
f 338/6/52 336/6/52 337/10/52
f 339/6/60 341/10/60 340/6/57
f 342/10/57 340/6/57 341/10/60
f 338/6/56 337/10/56 343/6/56
f 344/10/56 343/6/56 337/10/56
f 340/6/57 342/10/57 336/6/61
f 335/10/61 336/6/61 342/10/57
f 338/6/62 343/6/62 336/6/62
f 340/6/62 336/6/62 343/6/62
f 339/6/62 340/6/62 343/6/62
f 337/10/53 335/10/53 344/10/53
f 342/10/53 344/10/53 335/10/53
f 341/10/53 344/10/53 342/10/53
f 339/6/54 343/6/54 341/10/54
f 344/10/54 341/10/54 343/6/54
f 345/6/60 347/8/60 346/6/57
f 348/8/57 346/6/57 347/8/60
f 349/8/52 351/8/52 350/6/52
f 352/6/52 350/6/52 351/8/52
f 352/6/56 351/8/56 353/6/56
f 354/8/56 353/6/56 351/8/56
f 346/6/57 348/8/57 350/6/61
f 349/8/61 350/6/61 348/8/57
f 345/6/54 353/6/54 347/8/54
f 354/8/54 347/8/54 353/6/54
f 351/8/53 349/8/53 354/8/53
f 348/8/53 354/8/53 349/8/53
f 347/8/53 354/8/53 348/8/53
f 355/11/154 357/11/155 356/11/156
f 358/11/157 356/11/156 357/11/155
f 359/12/158 361/12/159 360/12/160
f 362/12/161 360/12/160 361/12/159
f 363/13/162 365/13/163 364/14/164
f 366/14/165 364/14/164 365/13/163
f 367/14/166 369/14/167 368/13/168
f 370/13/169 368/13/168 369/14/167
f 363/13/162 359/12/158 365/13/163
f 360/12/160 365/13/163 359/12/158
f 364/14/164 366/14/165 355/11/154
f 357/11/155 355/11/154 366/14/165
f 356/11/170 367/14/170 355/11/170
f 364/14/170 355/11/170 367/14/170
f 368/13/170 364/14/170 367/14/170
f 363/13/170 364/14/170 368/13/170
f 361/12/170 363/13/170 368/13/170
f 359/12/170 363/13/170 361/12/170
f 357/11/171 366/14/171 358/11/171
f 369/14/171 358/11/171 366/14/171
f 365/13/171 369/14/171 366/14/171
f 370/13/171 369/14/171 365/13/171
f 360/12/171 370/13/171 365/13/171
f 362/12/171 370/13/171 360/12/171
f 356/11/156 358/11/157 367/14/166
f 369/14/167 367/14/166 358/11/157
f 361/12/159 368/13/168 362/12/161
f 370/13/169 362/12/161 368/13/168
f 371/15/172 373/15/172 372/15/173
f 374/15/173 372/15/173 373/15/172
f 375/16/174 377/16/175 376/16/174
f 378/16/175 376/16/174 377/16/175
f 379/17/176 375/16/174 380/17/176
f 376/16/174 380/17/176 375/16/174
f 381/18/177 382/18/177 371/15/172
f 373/15/172 371/15/172 382/18/177
f 383/18/178 385/18/178 384/17/179
f 386/17/179 384/17/179 385/18/178
f 379/17/176 380/17/176 381/18/177
f 382/18/177 381/18/177 380/17/176
f 372/15/61 383/18/61 371/15/61
f 381/18/61 371/15/61 383/18/61
f 384/17/61 381/18/61 383/18/61
f 379/17/61 381/18/61 384/17/61
f 377/16/61 379/17/61 384/17/61
f 375/16/61 379/17/61 377/16/61
f 372/15/173 374/15/173 383/18/178
f 385/18/178 383/18/178 374/15/173
f 373/15/153 382/18/153 374/15/153
f 385/18/153 374/15/153 382/18/153
f 380/17/153 385/18/153 382/18/153
f 386/17/153 385/18/153 380/17/153
f 376/16/153 386/17/153 380/17/153
f 378/16/153 386/17/153 376/16/153
f 377/16/175 384/17/179 378/16/175
f 386/17/179 378/16/175 384/17/179
f 387/19/180 389/19/180 388/19/181
f 390/19/181 388/19/181 389/19/180
f 391/20/182 393/20/183 392/20/182
f 394/20/183 392/20/182 393/20/183
f 395/21/184 396/21/184 387/19/180
f 389/19/180 387/19/180 396/21/184
f 388/19/181 390/19/181 397/21/185
f 398/21/185 397/21/185 390/19/181
f 396/21/184 395/21/184 399/22/186
f 400/22/186 399/22/186 395/21/184
f 400/22/186 391/20/182 399/22/186
f 392/20/182 399/22/186 391/20/182
f 391/20/187 400/22/187 393/20/187
f 401/22/187 393/20/187 400/22/187
f 395/21/187 401/22/187 400/22/187
f 397/21/187 401/22/187 395/21/187
f 387/19/187 397/21/187 395/21/187
f 388/19/187 397/21/187 387/19/187
f 394/20/60 402/22/60 392/20/60
f 399/22/60 392/20/60 402/22/60
f 398/21/60 399/22/60 402/22/60
f 396/21/60 399/22/60 398/21/60
f 390/19/60 396/21/60 398/21/60
f 389/19/60 396/21/60 390/19/60
f 393/20/183 401/22/188 394/20/183
f 402/22/188 394/20/183 401/22/188
f 402/22/188 401/22/188 398/21/185
f 397/21/185 398/21/185 401/22/188
