# Blender 5.2.0 LTS
# www.blender.org
mtllib CorridorNew.mtl
o corridor
v 2.000000 0.200000 -1.399003
v 0.000000 0.200000 -1.199003
v 2.000000 0.900000 -1.399003
v 0.000000 0.900000 -1.199003
v -2.000000 0.900000 -2.000000
v 2.000000 0.900000 -2.000000
v -2.000000 0.900000 -1.399003
v -2.000000 0.200000 -2.000000
v 2.000000 0.200000 -2.000000
v -2.000000 0.200000 -1.399003
v -2.000000 0.200000 1.399003
v -0.000000 0.200000 1.199003
v -2.000000 0.900000 1.399003
v -0.000000 0.900000 1.199003
v 2.000000 0.900000 2.000000
v -2.000000 0.900000 2.000000
v 2.000000 0.900000 1.399003
v 2.000000 0.200000 2.000000
v -2.000000 0.200000 2.000000
v 2.000000 0.200000 1.399003
v 1.700496 0.900000 -1.570050
v 1.700496 0.900000 -1.470050
v 2.000000 0.900000 -1.600000
v 2.000000 0.900000 -1.500000
v 2.000000 4.100000 -1.500000
v 1.700496 4.100000 -1.470050
v 1.700496 4.150000 -1.520299
v 1.700496 4.150000 -1.940050
v 2.000000 4.150000 -1.550249
v 2.000000 4.150000 -1.950000
v 1.700496 4.050000 -1.990050
v 2.000000 4.050000 -2.000000
v 1.700496 4.100000 -1.990050
v 2.000000 4.100000 -2.000000
v 1.700496 4.050000 -1.570050
v 2.000000 4.050000 -1.600000
v -1.700496 0.900000 -1.570050
v -1.700496 0.900000 -1.470050
v -2.000000 0.900000 -1.600000
v -2.000000 0.900000 -1.500000
v -2.000000 4.100000 -1.500000
v -1.700496 4.100000 -1.470050
v -1.700496 4.150000 -1.520299
v -1.700496 4.150000 -1.940050
v -2.000000 4.150000 -1.550249
v -2.000000 4.150000 -1.950000
v -1.700496 4.050000 -1.990050
v -2.000000 4.050000 -2.000000
v -1.700496 4.100000 -1.990050
v -2.000000 4.100000 -2.000000
v -1.700496 4.050000 -1.570050
v -2.000000 4.050000 -1.600000
v 2.000000 0.200000 -2.000000
v 2.000000 0.900000 -1.600000
v 0.000000 0.900000 -1.400000
v 2.000000 4.050000 -1.600001
v 0.000000 4.050000 -1.400000
v -2.000000 4.050000 -1.600001
v -2.000000 0.900000 -1.600000
v -2.000000 4.050000 -2.000000
v -2.000000 0.900000 -2.000000
v 2.000000 0.900000 -2.000000
v 2.000000 4.050000 -2.000000
v -0.814740 1.256208 -1.421501
v -0.293183 1.256208 -1.375083
v -0.807974 1.256208 -1.481721
v -0.286417 1.256208 -1.435302
v -0.814740 1.664208 -1.421501
v -0.807974 1.664208 -1.481721
v -0.293183 1.664208 -1.375083
v -0.286417 1.664208 -1.435302
v -0.882403 1.596208 -1.427523
v -0.882403 1.324208 -1.427523
v -0.875636 1.596208 -1.487743
v -0.875636 1.324208 -1.487743
v -0.225521 1.324208 -1.369061
v -0.225521 1.596208 -1.369061
v -0.218755 1.324208 -1.429281
v -0.218755 1.596208 -1.429281
v -1.442330 2.103709 -1.493984
v -1.058832 2.103709 -1.455634
v -1.437355 2.103709 -1.543736
v -1.053857 2.103709 -1.505386
v -1.442330 2.403709 -1.493984
v -1.437355 2.403709 -1.543736
v -1.058832 2.403709 -1.455634
v -1.053857 2.403709 -1.505386
v -1.492082 2.353709 -1.498959
v -1.487107 2.353709 -1.548711
v -1.492082 2.153709 -1.498959
v -1.487107 2.153709 -1.548711
v -1.009081 2.153709 -1.450659
v -1.009081 2.353709 -1.450659
v -1.004105 2.153709 -1.500411
v -1.004105 2.353709 -1.500411
v 0.820181 3.439552 -1.482019
v 1.203679 3.439552 -1.520368
v 0.825156 3.439552 -1.432267
v 1.208654 3.439552 -1.470616
v 0.820181 3.139552 -1.482019
v 0.825156 3.139552 -1.432267
v 1.203679 3.139552 -1.520368
v 1.208654 3.139552 -1.470616
v 0.770429 3.389552 -1.477044
v 0.775405 3.389552 -1.427292
v 1.253431 3.389552 -1.525344
v 1.258406 3.389552 -1.475592
v 0.775405 3.189552 -1.427292
v 0.770429 3.189552 -1.477044
v 1.253431 3.189552 -1.525344
v 1.258406 3.189552 -1.475592
v -1.700496 0.900000 1.570049
v -1.700496 0.900000 1.470049
v -2.000000 0.900000 1.600000
v -2.000000 0.900000 1.500000
v -2.000000 4.100000 1.499999
v -1.700496 4.100000 1.470049
v -1.700496 4.150000 1.520298
v -1.700496 4.150000 1.940049
v -2.000000 4.150000 1.550249
v -2.000000 4.150000 1.949999
v -1.700496 4.050000 1.990049
v -2.000000 4.050000 1.999999
v -1.700496 4.100000 1.990049
v -2.000000 4.100000 1.999999
v -1.700496 4.050000 1.570049
v -2.000000 4.050000 1.599999
v 1.700496 0.900000 1.570049
v 1.700496 0.900000 1.470049
v 2.000000 0.900000 1.600000
v 2.000000 0.900000 1.500000
v 2.000000 4.100000 1.499999
v 1.700496 4.100000 1.470049
v 1.700496 4.150000 1.520298
v 1.700496 4.150000 1.940049
v 2.000000 4.150000 1.550249
v 2.000000 4.150000 1.949999
v 1.700496 4.050000 1.990049
v 2.000000 4.050000 1.999999
v 1.700496 4.100000 1.990049
v 2.000000 4.100000 1.999999
v 1.700496 4.050000 1.570049
v 2.000000 4.050000 1.599999
v -2.000000 0.900000 1.600000
v -0.000000 0.900000 1.400000
v -2.000000 4.050000 1.600000
v -0.000000 4.050000 1.400000
v 2.000000 4.050000 1.600000
v 2.000000 0.900000 1.600000
v 2.000000 4.050000 2.000000
v 2.000000 0.900000 2.000000
v -2.000000 0.900000 2.000000
v -2.000000 4.050000 2.000000
v 0.814740 1.256209 1.421501
v 0.293183 1.256209 1.375083
v 0.807974 1.256209 1.481721
v 0.286417 1.256209 1.435302
v 0.814740 1.664209 1.421501
v 0.807974 1.664209 1.481721
v 0.293183 1.664209 1.375083
v 0.286417 1.664209 1.435302
v 0.882403 1.596209 1.427523
v 0.882403 1.324209 1.427523
v 0.875636 1.596209 1.487743
v 0.875636 1.324209 1.487743
v 0.225521 1.324209 1.369061
v 0.225521 1.596209 1.369061
v 0.218755 1.324209 1.429280
v 0.218755 1.596209 1.429280
v 1.442330 2.103709 1.493984
v 1.058832 2.103709 1.455634
v 1.437355 2.103709 1.543736
v 1.053857 2.103709 1.505386
v 1.442330 2.403709 1.493984
v 1.437355 2.403709 1.543736
v 1.058832 2.403709 1.455634
v 1.053857 2.403709 1.505386
v 1.492082 2.353709 1.498959
v 1.487107 2.353709 1.548711
v 1.492082 2.153709 1.498959
v 1.487107 2.153709 1.548711
v 1.009081 2.153709 1.450659
v 1.009081 2.353709 1.450659
v 1.004105 2.153709 1.500411
v 1.004105 2.353709 1.500411
v -0.820181 3.439552 1.482018
v -1.203679 3.439552 1.520368
v -0.825156 3.439552 1.432266
v -1.208654 3.439552 1.470616
v -0.820181 3.139552 1.482018
v -0.825156 3.139552 1.432266
v -1.203679 3.139552 1.520368
v -1.208654 3.139552 1.470616
v -0.770429 3.389552 1.477043
v -0.775405 3.389552 1.427291
v -1.253431 3.389552 1.525343
v -1.258406 3.389552 1.475591
v -0.775405 3.189552 1.427291
v -0.770429 3.189552 1.477043
v -1.253431 3.189552 1.525343
v -1.258406 3.189552 1.475591
vn 0.0682 -0.7285 0.6816
vn 0.0995 -0.0000 0.9950
vn -0.0000 -0.6854 0.7282
vn -0.0000 -0.0000 1.0000
vn -0.0000 1.0000 -0.0000
vn -0.0000 -0.0000 -1.0000
vn -0.4065 -0.6672 0.6242
vn -0.0995 -0.0000 0.9950
vn -1.0000 -0.0000 -0.0000
vn -0.7071 -0.7071 -0.0000
vn 1.0000 -0.0000 -0.0000
vn -0.6025 -0.5828 -0.5453
vn -0.0995 -0.0000 -0.9950
vn -0.0000 -0.6854 -0.7282
vn 0.5774 -0.5774 0.5774
vn -0.3615 -0.6593 0.6593
vn 0.4065 -0.6672 -0.6242
vn 0.0995 -0.0000 -0.9950
vn -0.0000 -1.0000 -0.0000
vn 0.0916 0.3911 0.9158
vn 0.0923 0.3739 0.9229
vn 0.0402 0.9150 0.4015
vn 0.0360 0.9322 0.3603
vn -0.0125 0.9267 -0.3757
vn -0.0129 0.9209 -0.3895
vn -0.0332 -0.0000 -0.9994
vn -0.0306 0.3854 -0.9222
vn -0.0307 0.3797 -0.9246
vn 0.0360 -0.9322 -0.3603
vn 0.0402 -0.9150 -0.4015
vn 0.0916 -0.3911 -0.9158
vn 0.0923 -0.3739 -0.9229
vn -0.0129 -0.9209 0.3895
vn -0.0307 -0.3797 0.9246
vn -0.0125 -0.9267 0.3757
vn -0.0306 -0.3854 0.9222
vn -0.0332 -0.0000 0.9994
vn -0.3854 -0.9217 -0.0433
vn -0.3758 -0.9257 -0.0422
vn 0.3758 -0.9257 0.0422
vn 0.3854 -0.9217 0.0433
vn -0.3854 0.9217 -0.0433
vn 0.3758 0.9257 0.0422
vn -0.3758 0.9257 -0.0422
vn 0.3854 0.9217 0.0433
vn -0.9190 0.3804 -0.1033
vn -0.9174 0.3844 -0.1031
vn -0.9190 -0.3804 -0.1033
vn -0.9174 -0.3844 -0.1031
vn 0.9174 -0.3844 0.1031
vn 0.9190 -0.3804 0.1033
vn 0.9174 0.3844 0.1031
vn 0.9190 0.3804 0.1033
vn -0.0886 -0.0000 0.9961
vn 0.0886 -0.0000 -0.9961
vn 0.0887 -0.0000 -0.9961
vn -0.3808 -0.9239 -0.0381
vn 0.3808 -0.9239 0.0381
vn -0.3808 0.9239 -0.0381
vn 0.3808 0.9239 0.0381
vn -0.9193 0.3827 -0.0919
vn -0.9193 -0.3827 -0.0919
vn 0.9193 -0.3827 0.0919
vn 0.9193 0.3827 0.0919
vn -0.3808 0.9239 0.0381
vn 0.3808 0.9239 -0.0381
vn -0.3808 -0.9239 0.0381
vn 0.3808 -0.9239 -0.0381
vn -0.9193 0.3827 0.0919
vn 0.9193 0.3827 -0.0919
vn -0.9193 -0.3827 0.0919
vn 0.9193 -0.3827 -0.0919
vn -0.0916 0.3911 -0.9158
vn -0.0923 0.3739 -0.9229
vn -0.0402 0.9150 -0.4015
vn -0.0360 0.9322 -0.3603
vn 0.0125 0.9267 0.3757
vn 0.0129 0.9209 0.3895
vn 0.0332 -0.0000 0.9994
vn 0.0306 0.3854 0.9222
vn 0.0307 0.3797 0.9246
vn -0.0360 -0.9322 0.3603
vn -0.0402 -0.9150 0.4015
vn -0.0916 -0.3911 0.9158
vn -0.0923 -0.3739 0.9229
vn 0.0129 -0.9209 -0.3895
vn 0.0307 -0.3797 -0.9246
vn 0.0125 -0.9267 -0.3757
vn 0.0306 -0.3854 -0.9222
vn 0.0332 -0.0000 -0.9994
vn -0.0887 -0.0000 0.9961
vt 0.093750 0.025000
vt 0.093750 0.225000
vt 0.343750 0.025000
vt 0.343750 0.221923
vt 0.343750 0.225000
vt 0.343750 0.218846
vt 0.343750 0.077616
vt 0.343750 0.103521
vt 0.343750 0.099204
vt 0.343750 0.081934
vt 0.343750 0.131426
vt 0.343750 0.150474
vt 0.343750 0.147299
vt 0.343750 0.134601
vt 0.343750 0.216241
vt 0.343750 0.197194
vt 0.343750 0.213067
vt 0.343750 0.200368
vt 0.000000 0.000000
s 1
usemtl colormap
f 1/1/1 3/2/2 2/1/3
f 4/2/4 2/1/3 3/2/2
f 5/2/5 7/2/5 6/2/5
f 4/2/5 6/2/5 7/2/5
f 3/2/5 6/2/5 4/2/5
f 8/1/6 5/2/6 9/1/6
f 6/2/6 9/1/6 5/2/6
f 2/1/3 4/2/4 10/1/7
f 7/2/8 10/1/7 4/2/4
f 7/2/9 5/2/9 10/1/9
f 8/1/10 10/1/7 5/2/9
f 1/1/11 9/1/11 3/2/11
f 6/2/11 3/2/11 9/1/11
f 11/1/12 13/2/13 12/1/14
f 14/2/6 12/1/14 13/2/13
f 15/2/5 17/2/5 16/2/5
f 14/2/5 16/2/5 17/2/5
f 13/2/5 16/2/5 14/2/5
f 18/1/15 15/2/4 19/1/16
f 16/2/4 19/1/16 15/2/4
f 12/1/14 14/2/6 20/1/17
f 17/2/18 20/1/17 14/2/6
f 17/2/11 15/2/11 20/1/11
f 18/1/15 20/1/17 15/2/11
f 11/1/12 19/1/16 13/2/9
f 16/2/9 13/2/9 19/1/9
f 21/3/19 23/3/19 22/3/19
f 24/3/19 22/3/19 23/3/19
f 24/3/2 25/4/20 22/3/2
f 26/4/21 22/3/2 25/4/20
f 27/5/22 29/5/23 28/5/24
f 30/5/25 28/5/24 29/5/23
f 31/6/26 33/4/27 32/6/26
f 34/4/28 32/6/26 33/4/27
f 33/4/27 28/5/24 34/4/28
f 30/5/25 34/4/28 28/5/24
f 26/4/21 25/4/20 27/5/22
f 29/5/23 27/5/22 25/4/20
f 33/4/9 31/6/9 28/5/9
f 31/6/9 35/6/9 28/5/9
f 27/5/9 28/5/9 35/6/9
f 35/6/9 21/3/9 27/5/9
f 21/3/9 22/3/9 27/5/9
f 26/4/9 27/5/9 22/3/9
f 24/3/11 23/3/11 25/4/11
f 29/5/11 25/4/11 23/3/11
f 36/6/11 29/5/11 23/3/11
f 30/5/11 29/5/11 36/6/11
f 32/6/11 30/5/11 36/6/11
f 34/4/11 30/5/11 32/6/11
f 50/4/11 46/5/11 48/6/11
f 48/6/11 46/5/11 52/6/11
f 46/5/11 45/5/11 52/6/11
f 52/6/11 45/5/11 39/3/11
f 45/5/11 41/4/11 39/3/11
f 40/3/11 39/3/11 41/4/11
f 42/4/9 43/5/9 38/3/9
f 37/3/9 38/3/9 43/5/9
f 51/6/9 37/3/9 43/5/9
f 43/5/9 44/5/9 51/6/9
f 47/6/9 51/6/9 44/5/9
f 49/4/9 47/6/9 44/5/9
f 45/5/29 43/5/30 41/4/31
f 42/4/32 41/4/31 43/5/30
f 46/5/33 50/4/34 44/5/35
f 49/4/36 44/5/35 50/4/34
f 50/4/34 48/6/37 49/4/36
f 47/6/37 49/4/36 48/6/37
f 46/5/33 44/5/35 45/5/29
f 43/5/30 45/5/29 44/5/35
f 42/4/32 38/3/18 41/4/31
f 40/3/18 41/4/31 38/3/18
f 40/3/5 38/3/5 39/3/5
f 37/3/5 39/3/5 38/3/5
f 54/3/2 56/5/2 55/3/4
f 57/5/4 55/3/4 56/5/2
f 58/5/9 60/5/9 59/3/9
f 61/3/9 59/3/9 60/5/9
f 61/3/6 60/5/6 62/3/6
f 63/5/6 62/3/6 60/5/6
f 55/3/4 57/5/4 59/3/8
f 58/5/8 59/3/8 57/5/4
f 54/3/11 62/3/11 56/5/11
f 63/5/11 56/5/11 62/3/11
f 60/5/5 58/5/5 63/5/5
f 57/5/5 63/5/5 58/5/5
f 56/5/5 63/5/5 57/5/5
f 64/7/38 66/7/39 65/7/40
f 67/7/41 65/7/40 66/7/39
f 68/8/42 70/8/43 69/8/44
f 71/8/45 69/8/44 70/8/43
f 72/9/46 74/9/47 73/10/48
f 75/10/49 73/10/48 74/9/47
f 76/10/50 78/10/51 77/9/52
f 79/9/53 77/9/52 78/10/51
f 72/9/46 68/8/42 74/9/47
f 69/8/44 74/9/47 68/8/42
f 73/10/48 75/10/49 64/7/38
f 66/7/39 64/7/38 75/10/49
f 65/7/54 76/10/54 64/7/54
f 73/10/54 64/7/54 76/10/54
f 77/9/54 73/10/54 76/10/54
f 72/9/54 73/10/54 77/9/54
f 70/8/54 72/9/54 77/9/54
f 68/8/54 72/9/54 70/8/54
f 66/7/55 75/10/55 67/7/55
f 78/10/55 67/7/55 75/10/55
f 74/9/55 78/10/55 75/10/55
f 79/9/55 78/10/55 74/9/55
f 69/8/56 79/9/55 74/9/55
f 71/8/56 79/9/55 69/8/56
f 65/7/40 67/7/41 76/10/50
f 78/10/51 76/10/50 67/7/41
f 70/8/43 77/9/52 71/8/45
f 79/9/53 71/8/45 77/9/52
f 80/11/57 82/11/57 81/11/58
f 83/11/58 81/11/58 82/11/57
f 84/12/59 86/12/60 85/12/59
f 87/12/60 85/12/59 86/12/60
f 88/13/61 84/12/59 89/13/61
f 85/12/59 89/13/61 84/12/59
f 90/14/62 91/14/62 80/11/57
f 82/11/57 80/11/57 91/14/62
f 92/14/63 94/14/63 93/13/64
f 95/13/64 93/13/64 94/14/63
f 88/13/61 89/13/61 90/14/62
f 91/14/62 90/14/62 89/13/61
f 81/11/8 92/14/8 80/11/8
f 90/14/8 80/11/8 92/14/8
f 93/13/8 90/14/8 92/14/8
f 88/13/8 90/14/8 93/13/8
f 86/12/8 88/13/8 93/13/8
f 84/12/8 88/13/8 86/12/8
f 81/11/58 83/11/58 92/14/63
f 94/14/63 92/14/63 83/11/58
f 82/11/18 91/14/18 83/11/18
f 94/14/18 83/11/18 91/14/18
f 89/13/18 94/14/18 91/14/18
f 95/13/18 94/14/18 89/13/18
f 85/12/18 95/13/18 89/13/18
f 87/12/18 95/13/18 85/12/18
f 86/12/60 93/13/64 87/12/60
f 95/13/64 87/12/60 93/13/64
f 96/15/65 98/15/65 97/15/66
f 99/15/66 97/15/66 98/15/65
f 100/16/67 102/16/68 101/16/67
f 103/16/68 101/16/67 102/16/68
f 104/17/69 105/17/69 96/15/65
f 98/15/65 96/15/65 105/17/69
f 97/15/66 99/15/66 106/17/70
f 107/17/70 106/17/70 99/15/66
f 105/17/69 104/17/69 108/18/71
f 109/18/71 108/18/71 104/17/69
f 109/18/71 100/16/67 108/18/71
f 101/16/67 108/18/71 100/16/67
f 100/16/13 109/18/13 102/16/13
f 110/18/13 102/16/13 109/18/13
f 104/17/13 110/18/13 109/18/13
f 106/17/13 110/18/13 104/17/13
f 96/15/13 106/17/13 104/17/13
f 97/15/13 106/17/13 96/15/13
f 103/16/2 111/18/2 101/16/2
f 108/18/2 101/16/2 111/18/2
f 107/17/2 108/18/2 111/18/2
f 105/17/2 108/18/2 107/17/2
f 99/15/2 105/17/2 107/17/2
f 98/15/2 105/17/2 99/15/2
f 102/16/68 110/18/72 103/16/68
f 111/18/72 103/16/68 110/18/72
f 111/18/72 110/18/72 107/17/70
f 106/17/70 107/17/70 110/18/72
f 112/3/19 114/3/19 113/3/19
f 115/3/19 113/3/19 114/3/19
f 115/3/13 116/4/73 113/3/13
f 117/4/74 113/3/13 116/4/73
f 118/5/75 120/5/76 119/5/77
f 121/5/78 119/5/77 120/5/76
f 122/6/79 124/4/80 123/6/79
f 125/4/81 123/6/79 124/4/80
f 124/4/80 119/5/77 125/4/81
f 121/5/78 125/4/81 119/5/77
f 117/4/74 116/4/73 118/5/75
f 120/5/76 118/5/75 116/4/73
f 124/4/11 122/6/11 119/5/11
f 122/6/11 126/6/11 119/5/11
f 118/5/11 119/5/11 126/6/11
f 126/6/11 112/3/11 118/5/11
f 112/3/11 113/3/11 118/5/11
f 117/4/11 118/5/11 113/3/11
f 115/3/9 114/3/9 116/4/9
f 120/5/9 116/4/9 114/3/9
f 127/6/9 120/5/9 114/3/9
f 121/5/9 120/5/9 127/6/9
f 123/6/9 121/5/9 127/6/9
f 125/4/9 121/5/9 123/6/9
f 141/4/9 137/5/9 139/6/9
f 139/6/9 137/5/9 143/6/9
f 137/5/9 136/5/9 143/6/9
f 143/6/9 136/5/9 130/3/9
f 136/5/9 132/4/9 130/3/9
f 131/3/9 130/3/9 132/4/9
f 133/4/11 134/5/11 129/3/11
f 128/3/11 129/3/11 134/5/11
f 142/6/11 128/3/11 134/5/11
f 134/5/11 135/5/11 142/6/11
f 138/6/11 142/6/11 135/5/11
f 140/4/11 138/6/11 135/5/11
f 136/5/82 134/5/83 132/4/84
f 133/4/85 132/4/84 134/5/83
f 137/5/86 141/4/87 135/5/88
f 140/4/89 135/5/88 141/4/87
f 141/4/87 139/6/90 140/4/89
f 138/6/90 140/4/89 139/6/90
f 137/5/86 135/5/88 136/5/82
f 134/5/83 136/5/82 135/5/88
f 133/4/85 129/3/8 132/4/84
f 131/3/8 132/4/84 129/3/8
f 131/3/5 129/3/5 130/3/5
f 128/3/5 130/3/5 129/3/5
f 144/3/13 146/5/13 145/3/6
f 147/5/6 145/3/6 146/5/13
f 148/5/11 150/5/11 149/3/11
f 151/3/11 149/3/11 150/5/11
f 151/3/4 150/5/4 152/3/4
f 153/5/4 152/3/4 150/5/4
f 145/3/6 147/5/6 149/3/18
f 148/5/18 149/3/18 147/5/6
f 144/3/9 152/3/9 146/5/9
f 153/5/9 146/5/9 152/3/9
f 150/5/5 148/5/5 153/5/5
f 147/5/5 153/5/5 148/5/5
f 146/5/5 153/5/5 147/5/5
f 154/7/41 156/7/40 155/7/39
f 157/7/38 155/7/39 156/7/40
f 158/8/45 160/8/44 159/8/43
f 161/8/42 159/8/43 160/8/44
f 162/9/53 164/9/52 163/10/51
f 165/10/50 163/10/51 164/9/52
f 166/10/49 168/10/48 167/9/47
f 169/9/46 167/9/47 168/10/48
f 162/9/53 158/8/45 164/9/52
f 159/8/43 164/9/52 158/8/45
f 163/10/51 165/10/50 154/7/41
f 156/7/40 154/7/41 165/10/50
f 155/7/55 166/10/55 154/7/55
f 163/10/55 154/7/55 166/10/55
f 167/9/55 163/10/55 166/10/55
f 162/9/55 163/10/55 167/9/55
f 160/8/55 162/9/55 167/9/55
f 158/8/55 162/9/55 160/8/55
f 156/7/54 165/10/54 157/7/54
f 168/10/54 157/7/54 165/10/54
f 164/9/54 168/10/54 165/10/54
f 169/9/54 168/10/54 164/9/54
f 159/8/91 169/9/54 164/9/54
f 161/8/91 169/9/54 159/8/91
f 155/7/39 157/7/38 166/10/49
f 168/10/48 166/10/49 157/7/38
f 160/8/44 167/9/47 161/8/42
f 169/9/46 161/8/42 167/9/47
f 170/11/58 172/11/58 171/11/57
f 173/11/57 171/11/57 172/11/58
f 174/12/60 176/12/59 175/12/60
f 177/12/59 175/12/60 176/12/59
f 178/13/64 174/12/60 179/13/64
f 175/12/60 179/13/64 174/12/60
f 180/14/63 181/14/63 170/11/58
f 172/11/58 170/11/58 181/14/63
f 182/14/62 184/14/62 183/13/61
f 185/13/61 183/13/61 184/14/62
f 178/13/64 179/13/64 180/14/63
f 181/14/63 180/14/63 179/13/64
f 171/11/18 182/14/18 170/11/18
f 180/14/18 170/11/18 182/14/18
f 183/13/18 180/14/18 182/14/18
f 178/13/18 180/14/18 183/13/18
f 176/12/18 178/13/18 183/13/18
f 174/12/18 178/13/18 176/12/18
f 171/11/57 173/11/57 182/14/62
f 184/14/62 182/14/62 173/11/57
f 172/11/8 181/14/8 173/11/8
f 184/14/8 173/11/8 181/14/8
f 179/13/8 184/14/8 181/14/8
f 185/13/8 184/14/8 179/13/8
f 175/12/8 185/13/8 179/13/8
f 177/12/8 185/13/8 175/12/8
f 176/12/59 183/13/61 177/12/59
f 185/13/61 177/12/59 183/13/61
f 186/15/66 188/15/66 187/15/65
f 189/15/65 187/15/65 188/15/66
f 190/16/68 192/16/67 191/16/68
f 193/16/67 191/16/68 192/16/67
f 194/17/70 195/17/70 186/15/66
f 188/15/66 186/15/66 195/17/70
f 187/15/65 189/15/65 196/17/69
f 197/17/69 196/17/69 189/15/65
f 195/17/70 194/17/70 198/18/72
f 199/18/72 198/18/72 194/17/70
f 199/18/72 190/16/68 198/18/72
f 191/16/68 198/18/72 190/16/68
f 190/16/2 199/18/2 192/16/2
f 200/18/2 192/16/2 199/18/2
f 194/17/2 200/18/2 199/18/2
f 196/17/2 200/18/2 194/17/2
f 186/15/2 196/17/2 194/17/2
f 187/15/2 196/17/2 186/15/2
f 193/16/13 201/18/13 191/16/13
f 198/18/13 191/16/13 201/18/13
f 197/17/13 198/18/13 201/18/13
f 195/17/13 198/18/13 197/17/13
f 189/15/13 195/17/13 197/17/13
f 188/15/13 195/17/13 189/15/13
f 192/16/67 200/18/71 193/16/67
f 201/18/71 193/16/67 200/18/71
f 201/18/71 200/18/71 197/17/69
f 196/17/69 197/17/69 200/18/71
f 12/1/14 20/1/17 18/1/15 19/1/16 11/1/12
f 2/1/3 10/1/7 8/1/10 53/19/19 1/1/1
